<?xml version="1.0" encoding="UTF-8" standalone="no"?>
<!-- Created with Inkscape (http://www.inkscape.org/) -->

<svg
   xmlns:dc="http://purl.org/dc/elements/1.1/"
   xmlns:cc="http://creativecommons.org/ns#"
   xmlns:rdf="http://www.w3.org/1999/02/22-rdf-syntax-ns#"
   xmlns:svg="http://www.w3.org/2000/svg"
   xmlns="http://www.w3.org/2000/svg"
   xmlns:sodipodi="http://sodipodi.sourceforge.net/DTD/sodipodi-0.dtd"
   xmlns:inkscape="http://www.inkscape.org/namespaces/inkscape"
   width="89.694359mm"
   height="113.64798mm"
   viewBox="0 0 89.694359 113.64798"
   version="1.1"
   id="svg8"
   sodipodi:docname="balloon.svg"
   inkscape:version="0.92.2 (5c3e80d, 2017-08-06)">
  <defs
     id="defs2">
    <filter
       inkscape:label="Opacity"
       style="color-interpolation-filters:sRGB"
       id="filter26">
      <feColorMatrix
         values="1 0 0 0 0 0 1 0 0 0 0 0 1 0 0 0 0 0 5.7 -1 "
         result="colormatrix"
         id="feColorMatrix22" />
      <feComposite
         in2="colormatrix"
         operator="arithmetic"
         k2="0.3"
         result="composite"
         id="feComposite24"
         k1="0"
         k3="0"
         k4="0" />
    </filter>
  </defs>
  <sodipodi:namedview
     id="base"
     pagecolor="#ffffff"
     bordercolor="#666666"
     borderopacity="1.0"
     inkscape:pageopacity="0.0"
     inkscape:pageshadow="2"
     inkscape:zoom="15.839192"
     inkscape:cx="189.06832"
     inkscape:cy="50.366131"
     inkscape:document-units="mm"
     inkscape:current-layer="layer1"
     showgrid="false"
     inkscape:window-width="1920"
     inkscape:window-height="986"
     inkscape:window-x="-11"
     inkscape:window-y="-11"
     inkscape:window-maximized="1" />
  <metadata
     id="metadata5">
    <rdf:RDF>
      <cc:Work
         rdf:about="">
        <dc:format>image/svg+xml</dc:format>
        <dc:type
           rdf:resource="http://purl.org/dc/dcmitype/StillImage" />
        <dc:title></dc:title>
      </cc:Work>
    </rdf:RDF>
  </metadata>
  <g
     inkscape:label="Layer 1"
     inkscape:groupmode="layer"
     id="layer1"
     transform="translate(-2.3483441,-1.4005643)">
    <path
       style="fill:#ececec;stroke-width:0.82562077;stroke-miterlimit:4;stroke-dasharray:none"
       d="m 173.05044,433.15922 -1.13642,-0.45356 0.0797,-6.68322 c 0.1391,-11.65661 0.24738,-14.74721 0.5199,-14.83805 0.62649,-0.20883 1.51714,-1.12131 1.91703,-1.96402 0.47792,-1.00715 1.18462,-5.01652 1.77746,-10.0842 0.45689,-3.90563 1.06385,-7.07555 1.52735,-7.97676 0.18476,-0.35923 0.75243,-0.97083 1.26149,-1.35911 1.32756,-1.01258 1.62959,-1.94534 1.62959,-5.03266 0,-2.06484 0.0867,-2.72838 0.39685,-3.03856 0.41497,-0.41498 1.78848,-0.51016 3.4344,-0.238 l 0.92705,0.1533 0.0831,3.14938 c 0.0816,3.09301 0.0958,3.16028 0.79166,3.75827 0.43503,0.37383 1.02609,0.60888 1.53111,0.60888 0.58555,0 1.03314,0.21981 1.55343,0.76287 0.40198,0.41958 1.31387,1.16439 2.02642,1.65514 1.24124,0.85488 1.30817,0.96087 1.59708,2.5288 0.16585,0.90009 0.75702,2.9111 1.31371,4.46891 0.5567,1.55781 1.30303,3.74152 1.65852,4.85269 0.78516,2.45422 1.76539,4.23204 3.23407,5.86556 l 1.10628,1.23045 0.52723,4.33187 c 0.37985,3.12106 0.52722,5.80951 0.52722,9.61835 v 5.28648 l -2.84106,0.77088 c -3.60711,0.97874 -4.93542,1.22213 -8.52316,1.56168 -1.5973,0.15117 -4.26789,0.49093 -5.93464,0.75503 -1.66676,0.26409 -4.56463,0.54384 -6.43973,0.62166 -2.91233,0.12086 -3.5749,0.0754 -4.54568,-0.31206 z m 20.71386,-23.54579 c 0.70009,-0.37467 0.84109,-1.68011 0.39108,-3.62056 -0.21825,-0.94105 -0.39696,-2.13012 -0.39714,-2.64236 -1.8e-4,-0.51224 -0.28429,-2.10342 -0.63135,-3.53595 -0.34706,-1.43253 -0.63102,-3.17122 -0.63102,-3.86375 0,-2.72709 -1.46862,-3.70309 -5.12571,-3.40635 -1.61345,0.13091 -2.30621,0.081 -3.02144,-0.21788 -0.5104,-0.21326 -1.26113,-0.38775 -1.66829,-0.38775 h -0.7403 l -0.17732,3.09359 c -0.2074,3.6185 0.09,5.67984 1.01115,7.00909 0.3468,0.50044 0.63054,1.25079 0.63054,1.66747 0,1.01005 1.12558,3.22187 2.02452,3.97828 0.3974,0.33439 1.5534,0.84859 2.56888,1.14267 1.01548,0.29407 2.13043,0.63609 2.47767,0.76003 0.8837,0.31542 2.71875,0.32852 3.28873,0.0235 z m -13.20534,-6.51578 c 0.23997,-0.15243 0.26887,-1.37898 0.12627,-5.35959 -0.16358,-4.56624 -0.23439,-5.17139 -0.61361,-5.244 -0.27385,-0.0524 -0.68433,0.30082 -1.13642,0.978 -0.38925,0.58304 -0.90601,1.35731 -1.14834,1.7206 -0.36253,0.54346 -0.44085,1.24312 -0.44195,3.94815 l -0.001,3.28764 0.69448,0.43058 c 0.73065,0.45301 1.99497,0.57268 2.52089,0.23862 z"
       id="path181"
       inkscape:connector-curvature="0"
       transform="scale(0.26458333)" />
    <path
       style="fill:#ececec;stroke-width:1.65124154;stroke-miterlimit:4;stroke-dasharray:none"
       d="m 170.45346,374.44468 c -6.19392,-0.66332 -17.90521,-3.80954 -19.37314,-5.20457 -0.23804,-0.2262 -0.97872,-2.03249 -1.64597,-4.01396 -2.70477,-8.03204 -7.34476,-15.48839 -14.14575,-22.73179 -4.91133,-5.23082 -11.11028,-10.57073 -24.18241,-20.83124 C 98.317903,311.62539 94.574161,308.26312 85.066353,298.2766 62.757382,274.84441 47.284076,254.46387 33.366725,230.18085 20.043146,206.93384 15.239708,193.70065 11.792402,170.74485 9.7548883,157.17693 9.9354736,131.80083 12.180587,116.19661 14.411761,100.68926 23.695614,83.657868 40.661973,63.946998 48.173631,55.220239 61.60905,41.462724 65.221527,38.798664 81.601646,26.718963 98.714544,18.4307 116.15776,14.128802 c 6.32932,-1.560957 28.05027,-4.8491214 41.92133,-6.346141 11.70084,-1.2628015 39.12802,-1.2697364 49.23989,-0.01245 35.50555,4.414675 67.42093,16.571543 91.35234,34.796959 16.14913,12.298676 31.71463,31.878591 38.85882,48.880701 6.47781,15.416229 8.90902,29.172179 8.882,50.255089 -0.0267,20.84647 -1.49539,32.31017 -6.43844,50.25509 -8.00219,29.05065 -25.7682,59.57898 -56.43452,96.97464 -18.32595,22.34734 -34.11848,38.81348 -50.20373,52.34512 -9.66872,8.13378 -12.44622,11.37332 -17.04521,19.88079 -4.5708,8.45533 -6.3481,10.00974 -13.04041,11.40513 -8.65075,1.80373 -24.84483,2.73251 -32.79637,1.88095 z"
       id="path183"
       inkscape:connector-curvature="0"
       transform="scale(0.26458333)" />
    <path
       style="fill:#ececec;stroke-width:0.07723214;stroke-miterlimit:4;stroke-dasharray:none"
       d="m 49.174947,103.37935 c 0.07246,-1.22915 0.134624,-2.4591 0.166333,-3.689977 0.02866,-0.47197 0.08087,-0.9441 0.189696,-1.4049 0.134721,-0.13432 -0.0026,-0.539034 0.268273,-0.499389 0.145727,0.158179 0.01743,0.403909 -0.03024,0.588229 -0.166577,0.81839 -0.23914,1.653997 -0.258223,2.488487 -0.0099,0.27267 -0.142133,0.52429 -0.130535,0.79806 -0.0209,0.64291 0.03794,1.29319 -0.04267,1.93086 -0.03796,0.20385 -0.251579,0.15631 -0.174528,-0.0469 0.0064,-0.0546 0.01474,-0.10936 0.01189,-0.16446 z"
       id="path187"
       inkscape:connector-curvature="0" />
    <path
       style="fill:#ececec;stroke-width:0.07723214;stroke-miterlimit:4;stroke-dasharray:none"
       d="m 49.229004,103.22359 c 0.388118,-1.16851 0.766499,-2.34047 1.115702,-3.521197 0.149839,-0.44847 0.322466,-0.891 0.546847,-1.307929 0.164895,-0.09487 0.137001,-0.52134 0.388383,-0.412938 0.09982,0.190506 -0.0877,0.394657 -0.181454,0.560357 -0.372716,0.74739 -0.659078,1.535747 -0.893493,2.336857 -0.08014,0.26082 -0.272986,0.46964 -0.33264,0.73709 -0.186585,0.61559 -0.298055,1.25894 -0.540959,1.85402 -0.08943,0.18708 -0.283463,0.0859 -0.156443,-0.0905 0.02031,-0.0511 0.04254,-0.10182 0.05405,-0.15578 z"
       id="path187-7"
       inkscape:connector-curvature="0" />
    <path
       style="fill:#ececec;stroke-width:0.07723214;stroke-miterlimit:4;stroke-dasharray:none"
       d="m 47.735885,103.03563 c -0.142077,-1.22306 -0.294437,-2.44512 -0.476953,-3.66282 -0.05373,-0.46977 -0.08428,-0.94379 -0.05714,-1.41649 0.10935,-0.155673 -0.09616,-0.530394 0.177479,-0.538386 0.170981,0.13047 0.08731,0.394744 0.07236,0.584542 -0.02194,0.834884 0.05171,1.670414 0.177827,2.495534 0.0376,0.27025 -0.04894,0.541 0.01003,0.8086 0.09105,0.63677 0.261922,1.26695 0.293268,1.90893 -0.002,0.20735 -0.220615,0.19762 -0.180016,-0.0159 -0.0032,-0.0549 -0.0045,-0.11025 -0.01686,-0.16402 z"
       id="path187-7-7"
       inkscape:connector-curvature="0" />
    <path
       style="fill:#ececec;stroke-width:0.0710259;stroke-miterlimit:4;stroke-dasharray:none"
       d="m 47.302652,103.06252 c -0.339901,-0.79189 -0.686201,-1.56708 -1.050989,-2.29203 -0.130019,-0.30543 -0.246007,-0.65026 -0.324633,-1.083194 0.03864,-0.29781 -0.169589,-0.29005 0.0046,-0.71967 0.136406,-0.15629 0.136346,0.19141 0.165315,0.37158 0.155598,0.724444 0.372749,1.301634 0.621502,1.789094 0.0791,0.16532 0.07852,0.52309 0.170789,0.65325 0.187944,0.38588 0.425839,0.64293 0.57647,1.12542 0.04086,0.17456 -0.101614,0.5045 -0.11891,0.2652 -0.01317,-0.0405 -0.02528,-0.0842 -0.04413,-0.10947 z"
       id="path187-7-7-4"
       inkscape:connector-curvature="0" />
    <path
       style="fill:#ececec;stroke-width:0.07981438;stroke-miterlimit:4;stroke-dasharray:none"
       d="m 49.907336,103.3034 c 0.625291,-1.11379 1.241449,-2.23304 1.82994,-3.367045 0.24087,-0.427296 0.503533,-0.843986 0.813265,-1.22425 0.185279,-0.06382 0.242509,-0.50414 0.474319,-0.343475 0.06253,0.214118 -0.167438,0.384827 -0.295149,0.535042 -0.525464,0.687561 -0.972045,1.434098 -1.368795,2.204028 -0.133017,0.24989 -0.369294,0.42429 -0.482984,0.68503 -0.311381,0.59034 -0.552567,1.22396 -0.916636,1.78214 -0.127628,0.17287 -0.303052,0.031 -0.139656,-0.12344 0.03069,-0.048 0.06328,-0.0953 0.08569,-0.14803 z"
       id="path187-7-7-6"
       inkscape:connector-curvature="0" />
    <path
       style="fill:#ececec;stroke-width:0.07723214;stroke-miterlimit:4;stroke-dasharray:none"
       d="m 48.285522,102.74885 c 0.07246,-1.22915 0.134624,-2.4591 0.166333,-3.689985 0.02866,-0.471969 0.08087,-0.944103 0.189696,-1.404903 0.134721,-0.13432 -0.0026,-0.539034 0.268273,-0.499389 0.145727,0.158179 0.01743,0.403909 -0.03024,0.588229 -0.166577,0.818393 -0.23914,1.654005 -0.258223,2.488498 -0.0099,0.27267 -0.142133,0.52429 -0.130535,0.79806 -0.0209,0.64291 0.03794,1.29319 -0.04267,1.93086 -0.03796,0.20385 -0.251579,0.15631 -0.174528,-0.0469 0.0064,-0.0546 0.01474,-0.10936 0.01189,-0.16446 z"
       id="path187-7-7-9"
       inkscape:connector-curvature="0" />
    <path
       style="fill:#ececec;stroke-width:0.09204853;stroke-miterlimit:4;stroke-dasharray:none"
       d="m 46.851141,103.57615 c -0.600723,-0.95176 -1.205777,-1.88036 -1.822891,-2.73937 -0.230344,-0.36736 -0.451813,-0.78914 -0.645943,-1.334064 -0.01737,-0.396109 -0.27652,-0.338277 -0.153205,-0.936853 0.136358,-0.2345 0.213086,0.217631 0.289174,0.445266 0.354945,0.906322 0.754473,1.607071 1.173769,2.183881 0.135611,0.19683 0.213908,0.66217 0.358248,0.81026 0.320679,0.45868 0.675476,0.73838 0.970754,1.33125 0.08974,0.21759 -0.01586,0.67929 -0.09038,0.37208 -0.02544,-0.0496 -0.05028,-0.10377 -0.07947,-0.13222 z"
       id="path187-7-7-4-2"
       inkscape:connector-curvature="0" />
    <path
       style="fill:#ececec;stroke-width:0.11960756;stroke-miterlimit:4;stroke-dasharray:none"
       d="m 46.569199,104.66028 c -0.822003,-1.1744 -1.649933,-2.3202 -2.494366,-3.38015 -0.315192,-0.4533 -0.618242,-0.97371 -0.88388,-1.646109 -0.02377,-0.488756 -0.378378,-0.417399 -0.209639,-1.155978 0.186586,-0.28937 0.291578,0.26851 0.395691,0.549402 0.485693,1.118335 1.03239,1.982985 1.606137,2.694715 0.185562,0.24287 0.292702,0.81706 0.49021,0.99979 0.438803,0.56598 0.924291,0.91109 1.328339,1.64263 0.122801,0.26849 -0.02172,0.8382 -0.123674,0.45913 -0.03481,-0.0613 -0.0688,-0.12805 -0.10875,-0.16316 z"
       id="path187-7-7-4-2-0"
       inkscape:connector-curvature="0" />
    <path
       style="fill:#ececec;stroke-width:0.12013276;stroke-miterlimit:4;stroke-dasharray:none"
       d="m 51.205009,104.59017 c 0.701195,-1.38885 1.407446,-2.74389 2.127774,-3.99739 0.268871,-0.53606 0.527382,-1.151514 0.753979,-1.946684 0.02027,-0.57801 0.32277,-0.49362 0.178829,-1.36707 -0.159164,-0.34221 -0.248726,0.31755 -0.337538,0.64972 -0.414311,1.32254 -0.880663,2.345074 -1.370087,3.186784 -0.15829,0.28722 -0.249684,0.96626 -0.418164,1.18236 -0.374314,0.66933 -0.78845,1.07746 -1.133117,1.94259 -0.104754,0.31752 0.01852,0.99125 0.105498,0.54297 0.0297,-0.0724 0.05868,-0.15143 0.09277,-0.19296 z"
       id="path187-7-7-4-2-0-0"
       inkscape:connector-curvature="0" />
  </g>
</svg>
