<?xml version="1.0" encoding="UTF-8" standalone="no"?>
<svg
   xmlns:dc="http://purl.org/dc/elements/1.1/"
   xmlns:cc="http://creativecommons.org/ns#"
   xmlns:rdf="http://www.w3.org/1999/02/22-rdf-syntax-ns#"
   xmlns:svg="http://www.w3.org/2000/svg"
   xmlns="http://www.w3.org/2000/svg"
   xmlns:sodipodi="http://sodipodi.sourceforge.net/DTD/sodipodi-0.dtd"
   xmlns:inkscape="http://www.inkscape.org/namespaces/inkscape"
   sodipodi:docname="bristolmap_2.svg"
   inkscape:version="1.0 (4035a4f, 2020-05-01)"
   id="svg8"
   version="1.1"
   viewBox="0 0 210 297"
   height="297mm"
   width="210mm">
  <defs
     id="defs2">
    <inkscape:perspective
       id="perspective16"
       inkscape:persp3d-origin="105 : 99 : 1"
       inkscape:vp_z="210 : 148.5 : 1"
       inkscape:vp_y="0 : 1000 : 0"
       inkscape:vp_x="0 : 148.5 : 1"
       sodipodi:type="inkscape:persp3d" />
  </defs>
  <sodipodi:namedview
     inkscape:window-maximized="0"
     inkscape:window-y="0"
     inkscape:window-x="0"
     inkscape:window-height="900"
     inkscape:window-width="1440"
     inkscape:lockguides="false"
     showguides="false"
     inkscape:snap-global="false"
     showgrid="false"
     inkscape:document-rotation="0"
     inkscape:current-layer="layer1"
     inkscape:document-units="mm"
     inkscape:cy="474.83385"
     inkscape:cx="346.61883"
     inkscape:zoom="0.59608723"
     inkscape:pageshadow="2"
     inkscape:pageopacity="0.0"
     borderopacity="1.0"
     bordercolor="#666666"
     pagecolor="#ffffff"
     id="base" />
  <metadata
     id="metadata5">
    <rdf:RDF>
      <cc:Work
         rdf:about="">
        <dc:format>image/svg+xml</dc:format>
        <dc:type
           rdf:resource="http://purl.org/dc/dcmitype/StillImage" />
        <dc:title></dc:title>
      </cc:Work>
    </rdf:RDF>
  </metadata>
  <g
     id="layer1"
     inkscape:groupmode="layer"
     inkscape:label="Layer 1">
    <path
       sodipodi:nodetypes="cccccccccccccccccccccc"
       d="m 123.51517,25.80143 c 4.71783,-1.129971 9.59995,-2.373479 14.45359,-1.314816 5.15264,0.3195 10.24099,-1.021552 15.40182,-0.809305 3.28057,-0.05894 6.56177,-0.03414 9.8426,-0.01854 2.86457,5.264424 4.29332,11.282593 7.742,16.219924 0.90396,3.159923 -0.86784,6.601156 -2.42596,9.221328 -1.59303,3.888739 -4.28286,7.033469 -6.1335,10.754315 -2.15013,3.118631 -3.84354,6.618547 -3.55725,10.547135 -0.4076,3.552357 0.96156,6.902128 0.41828,10.495419 0.0853,2.925805 -3.08779,1.222849 -3.92107,4.009942 -1.42808,4.229347 -4.76866,2.322076 -8.0285,2.965674 -3.24312,-0.09947 -6.11762,0.845888 -9.43501,0.681535 -4.12159,-1.533291 -8.50146,-2.274608 -12.80585,-3.102679 -3.28461,-0.785275 -6.98871,-0.539737 -9.75782,-2.6043 -2.64296,-2.909929 -2.99619,-7.139882 -4.02718,-10.810781 -1.00419,-4.499034 -1.15824,-9.147249 -1.06474,-13.725542 -1.11009,-3.9717 -3.16452,-7.741851 -3.06656,-11.993974 -0.14639,-3.150263 0.093,-6.309721 -0.16499,-9.45602 1.64326,-3.263222 2.04515,-7.583591 4.53781,-10.111631 3.51056,-1.028072 7.24129,-2.486175 10.98231,-1.344851 l 0.5203,0.179471 z"
       style="fill:none;stroke:#000000;stroke-width:0.260089px;stroke-linecap:butt;stroke-linejoin:miter;stroke-opacity:1"
       id="path317" />
    <path
       d="M 83.566894,48.404295 C 79.145135,49.058664 76.891987,44.232312 73.25578,42.716581 70.188758,40.655408 66.748245,38.746653 62.935207,39.01482 59.729058,38.448455 56.720586,37.194834 53.520643,36.685946 49.49383,36.336357 46.164337,39.078838 42.62132,40.532098 c -1.510681,0.411382 -3.026328,4.325598 -1.545977,2.467292 -2.884185,2.85928 -1.755151,7.11571 -2.832683,10.659812 -0.805698,4.26805 -0.958002,8.746249 0.23158,12.959328 -1.106697,3.548186 1.684753,6.838898 1.024233,10.442358 0.03126,6.391392 0.919945,12.867515 -0.409645,19.177498 -0.82935,3.680706 2.769438,5.231674 5.733216,5.600474 7.312914,1.74039 14.787119,2.73324 22.076703,4.56905 4.60386,0.67786 9.421861,-0.054 13.581507,-2.15411 2.604664,-2.83298 3.051538,-6.793117 4.575609,-9.924155 1.928694,-3.016192 4.039761,-5.774293 7.112413,-7.564471 C 96.06106,81.50259 97.3941,74.727083 96.685094,68.29011 94.945165,64.463975 90.835673,62.42785 88.971316,58.646101 86.626753,56.058513 84.603204,53.120177 84.020618,49.604024 l -0.210371,-0.605431 -0.243356,-0.594302 z"
       style="fill:none;stroke:#000000;stroke-width:0.237497px;stroke-linecap:butt;stroke-linejoin:miter;stroke-opacity:1"
       id="path321" />
    <path
       d="m 96.346506,87.554859 c -2.852696,2.051792 0.183071,6.276618 -1.93277,8.967509 -1.475978,2.26568 -2.321608,4.933142 -4.167801,6.917012 -1.423825,2.11132 -4.342503,3.49207 -4.312803,6.33292 -0.112945,3.14147 -1.33717,6.6488 -0.746823,9.5761 2.320334,2.5235 5.453067,4.07564 8.237425,6.00272 3.538698,1.96916 7.778836,3.48642 11.815626,2.36663 2.72462,-1.58132 4.98756,-3.8426 7.77994,-5.34868 3.47012,-2.3158 6.88265,-5.31997 11.14919,-5.87541 3.97778,0.24332 5.79908,5.02482 9.68877,5.37745 3.73916,-0.0606 5.7834,-3.77597 6.79376,-6.90761 1.77716,-3.05215 1.84182,-6.79937 4.18377,-9.5827 1.79449,-1.79886 2.09581,-4.47094 3.02158,-6.755912 0.28182,-2.19217 2.50451,-4.585091 1.3119,-6.62589 -2.60937,-0.746761 -5.49037,-0.678034 -8.23657,-0.783347 -2.96053,0.151325 -5.84286,-0.574678 -8.67592,-1.285363 -2.33938,-0.107664 -5.28823,-0.146468 -6.86206,1.867484 -1.27525,2.197636 -3.29605,4.703426 -4.99261,6.973136 -2.66762,2.192842 -6.19799,2.713362 -9.35095,3.886832 -3.13099,0.052 -6.77657,-1.45914 -7.44288,-4.840502 -0.81144,-2.807785 -0.0299,-6.341045 -2.48856,-8.464613 -1.524681,-0.706141 -3.108036,-1.47035 -4.778276,-1.722295"
       style="fill:none;stroke:#000000;stroke-width:0.223697px;stroke-linecap:butt;stroke-linejoin:miter;stroke-opacity:1"
       id="path325" />
    <path
       sodipodi:nodetypes="ccccccccccccccccccccccccc"
       d="m 41.515541,114.57209 c 5.389127,-0.74706 10.467644,-0.31948 17.055635,-1.72379 3.941207,-0.79213 7.89791,-2.12029 11.935792,-1.95079 2.657656,1.30557 5.360491,2.65956 7.627477,5.02564 2.10645,2.03239 3.265648,4.69364 4.133608,6.83736 1.158285,2.08173 1.553865,3.87905 2.891698,4.88914 1.431122,1.72596 3.130941,4.58658 6.34222,4.63977 7.80672,1.28848 15.929599,1.3472 23.626419,-0.62142 3.225,-2.35932 4.31309,-7.23581 8.02299,-9.63012 3.31423,-2.93785 8.21683,1.3519 6.93099,5.50605 0.39952,4.69586 0.97705,9.68746 -0.54339,14.14219 -1.82895,3.98565 -1.50146,8.72508 -3.43042,12.65798 -2.50986,2.37476 -7.15132,0.74654 -10.51329,1.36541 -4.96083,0.004 -9.92884,-0.0381 -14.88147,0.0952 -3.259571,-1.78462 -7.573103,-1.47545 -10.658318,-2.79329 -4.739474,-1.30582 -9.580455,-2.98728 -14.482306,-3.69754 -4.666913,-0.0861 -9.505186,-0.57374 -14.039806,0.75946 -4.407293,2.80223 -8.819993,5.68132 -13.463033,8.05396 -3.924362,1.46002 -8.947742,2.66992 -12.489181,-0.32375 -2.485484,-3.09737 -5.990303,-5.80338 -6.404343,-10.2579 -1.199076,-5.28583 -1.058288,-10.79024 -0.426149,-16.13184 -0.947316,-3.85017 0.895375,-7.78733 1.57119,-11.59103 0.549345,-3.73267 2.486064,-6.27919 6.354813,-5.31234 1.653816,0.43884 3.444005,-0.0733 4.838874,0.0616 z"
       style="fill:none;stroke:#000000;stroke-width:0.241022px;stroke-linecap:butt;stroke-linejoin:miter;stroke-opacity:1"
       id="path329" />
    <path
       sodipodi:nodetypes="cccccccccccccccccc"
       d="m 44.210187,162.63396 c 6.290938,0.32855 11.004142,-4.75808 16.828654,-6.27443 4.81427,-2.29646 9.871083,-5.75917 15.471248,-4.24415 8.833053,1.62937 17.258491,4.88221 26.043591,6.72881 8.4597,2.37897 17.12029,4.57864 25.98759,3.9941 3.95624,-0.35716 9.24443,0.13483 7.66241,5.37961 -1.64885,3.87495 -4.99265,6.89986 -7.46742,10.33618 -2.52328,4.53472 -8.37264,3.89402 -12.36889,6.33153 -6.43929,3.58982 -13.98635,4.50078 -20.439537,8.09413 -6.0093,2.71334 -12.619149,0.66853 -18.84793,0.077 -7.398718,-1.37885 -15.606307,0.0972 -22.286503,-4.03549 -3.983199,-1.85939 -4.193944,-8.98353 -7.157214,-9.97118 -2.893815,3.48679 -4.965082,7.4658 -7.824555,10.86785 -3.968161,3.37658 -9.534326,3.02939 -14.352207,2.95322 -5.313822,-0.92074 -4.953888,-7.70145 -2.92367,-11.36157 2.125314,-3.52317 8.091442,-3.54307 8.503496,-8.36861 -0.753132,-3.99313 6.876145,-7.53067 2.645587,-10.91442 10.872939,1.03647 -4.539661,0.63223 10.52535,0.40742 z"
       style="fill:none;stroke:#000000;stroke-width:0.256002px;stroke-linecap:butt;stroke-linejoin:miter;stroke-opacity:1"
       id="path333" />
    <path
       sodipodi:nodetypes="cccccccccccccccccc"
       d="m 173.59108,138.40143 c -3.81263,0.006 -7.63185,-0.47345 -11.2687,-1.6363 -2.5688,-0.42414 -5.59372,3.11934 -8.08899,4.06367 -0.73239,0.73847 -1.1063,1.50181 -1.7773,2.6161 -0.91999,1.83727 -2.16457,3.47417 -3.57728,4.95391 -0.6539,1.48755 -2.62528,3.06112 -3.19657,3.96726 -1.6591,2.28979 -3.98235,4.08871 -5.28184,6.64459 0.40414,1.61608 2.29037,2.56851 3.84414,2.87775 3.35719,0.63655 6.24228,-1.82003 8.29269,-4.17384 1.69351,-1.83822 3.01737,-4.02954 4.73437,-5.81723 2.45198,0.13661 4.90193,0.67336 7.23938,1.42403 2.04595,0.76171 3.93215,2.11688 4.9678,4.06508 2.10109,1.90386 3.15224,4.86592 5.68742,6.34368 1.57042,0.7842 4.20182,1.47748 5.42954,-0.13564 1.14648,-2.05326 1.58159,-4.40776 2.31583,-6.62235 0.65481,-2.57727 0.97632,-5.3135 0.45458,-7.94108 -0.88722,-2.46402 -0.1988,-11.41428 -1.59891,-13.56686 -1.48305,-1.88635 -6.30356,2.71001 -8.17616,2.93723 z"
       style="fill:none;stroke:#000000;stroke-width:0.168029px;stroke-linecap:butt;stroke-linejoin:miter;stroke-opacity:1"
       id="path337" />
    <path
       sodipodi:nodetypes="cccccccccccccccc"
       d="m 177.6747,89.570556 c 5.49051,6.514977 10.01159,13.808744 10.64302,18.534654 1.31782,3.57861 3.58998,7.1045 2.97675,11.08263 0.0842,2.88278 -0.31876,6.74059 -3.42036,7.9326 -3.31395,0.35136 -6.52136,1.94267 -9.90416,1.48652 -3.68379,-0.30317 -7.41257,0.38831 -11.11224,0.32338 -3.9797,0.53801 -7.42159,2.89005 -10.35258,5.50607 -3.41133,1.57522 -5.40183,4.83487 -7.67214,7.62627 -1.14298,1.51497 -5.1298,4.89962 -5.98962,2.30118 1.09625,-3.1462 3.20206,-6.42913 3.23634,-9.82151 0.30504,-3.29646 1.21042,-6.07301 0.81339,-9.4396 -0.26843,-3.13975 -0.52366,-6.50724 1.26792,-9.29263 1.34815,-2.72103 2.49027,-5.71459 2.01586,-8.79705 0.10373,-4.51337 1.62719,-8.927888 4.04015,-12.719727 0.43405,-4.275525 2.98745,-9.221429 7.71491,-9.717509 4.4553,-0.269992 12.16602,2.044593 15.80324,4.984492"
       style="fill:none;stroke:#000000;stroke-width:0.264583px;stroke-linecap:butt;stroke-linejoin:miter;stroke-opacity:1"
       id="path343" />
    <path
       sodipodi:nodetypes="cccccccccccccccccccccccccc"
       d="m 88.351153,16.425717 c 14.782787,0.04772 29.565077,0.427769 44.302267,-0.896653 13.26496,0.359985 29.54511,-6.7286392 42.43106,-2.925085 9.76526,5.692526 5.09781,25.637428 6.34577,35.578124 0.54357,7.585706 3.60485,18.930772 7.15713,27.411867 3.1595,7.070336 3.91747,15.211608 7.72737,21.892831 1.12217,7.174519 3.50228,17.728929 4.04385,26.396679 0.25309,13.525 -6.19807,23.14398 -8.58721,39.73629 -8.2827,3.64602 -15.31834,3.68351 -23.40415,4.71844 -5.54757,1.98007 -5.50844,2.28979 -7.05348,14.81178 -6.80838,11.81244 -6.14715,12.31252 -9.05168,21.01462 2.05061,10.30421 -12.33674,1.87157 -18.42402,4.03174 -15.63209,0.28245 -31.07336,-2.99127 -46.715971,-1.92859 -11.187624,-1.09937 -21.671823,4.32172 -32.717417,3.25139 -6.992333,-2.32297 -15.401006,-0.98561 -23.726037,-1.09504 -8.463958,0.47918 -14.705294,-5.88423 -18.990326,-15.72878 2.055008,-13.19518 4.011766,-15.20552 8.039848,-26.61307 2.821407,-13.85452 0.76031,-15.58043 0.365016,-22.26598 C 14.706798,137.83784 8.0723766,121.58835 9.4983778,112.04693 9.0700303,99.050824 9.7025968,101.83076 11.888776,89.107449 13.150711,77.486935 17.930571,67.028687 23.832938,57.068355 c 5.518229,-9.394128 8.498968,-19.882326 13.050968,-29.692159 6.365727,-6.914611 3.814887,-3.415379 10.220447,-11.68051 10.539613,-0.343591 1.489546,-0.763994 17.542389,-1.033765 5.881803,0.04895 3.8322,-0.112443 14.213999,0.303733 1.681809,-0.394215 8.53103,1.79117 9.490412,1.460063 z"
       style="fill:none;stroke:#000000;stroke-width:0.264583px;stroke-linecap:butt;stroke-linejoin:miter;stroke-opacity:1"
       id="path394" />
  </g>
</svg>
