<?xml version="1.0" encoding="UTF-8" standalone="no"?>
<svg
   xmlns:dc="http://purl.org/dc/elements/1.1/"
   xmlns:cc="http://creativecommons.org/ns#"
   xmlns:rdf="http://www.w3.org/1999/02/22-rdf-syntax-ns#"
   xmlns:svg="http://www.w3.org/2000/svg"
   xmlns="http://www.w3.org/2000/svg"
   width="41.893253mm"
   height="39.032135mm"
   viewBox="0 0 41.893253 39.032135"
   version="1.1"
   id="svg8">
  <defs
     id="defs2" />
  <metadata
     id="metadata5">
    <rdf:RDF>
      <cc:Work
         rdf:about="">
        <dc:format>image/svg+xml</dc:format>
        <dc:type
           rdf:resource="http://purl.org/dc/dcmitype/StillImage" />
        <dc:title></dc:title>
      </cc:Work>
    </rdf:RDF>
  </metadata>
 <path
     id="path3714"
     d="M 1.9185262,38.957242 C 0.6945695,38.912487 0.22378895,38.868733 0.17854705,38.795528 -0.0108925,38.489008 -0.04879592,36.878119 0.06107602,33.803042 l 0.0709713,-1.986333 0.39942586,0.04413 c 0.97304122,0.107503 5.34270042,0.143163 6.41949482,0.05239 5.065162,-0.426995 9.717652,-2.194168 13.008684,-4.941141 1.19704,-0.999152 1.85715,-1.767353 2.315927,-2.695155 1.083374,-2.190947 1.592911,-4.276827 2.214986,-9.067426 0.13158,-1.013314 0.273204,-2.054067 0.314719,-2.312785 0.179732,-1.120103 0.04989,-1.851479 -0.346355,-1.95093 -0.524285,-0.131587 -0.879719,0.192787 -2.724846,2.486724 -1.658255,2.061609 -2.321928,3.006741 -2.701676,3.847444 l -0.226421,0.50126 -0.431197,0.05821 c -0.383382,0.05176 -5.562396,0.17864 -5.634364,0.138038 -0.108246,-0.06107 0.574629,-1.189491 1.309758,-2.164322 0.481265,-0.63819 0.875028,-1.191329 0.875028,-1.229198 0,-0.03787 0.25987,-0.418035 0.57749,-0.844813 1.278143,-1.717415 2.566082,-3.7753261 4.673316,-7.4671744 1.649916,-2.8906307 1.963781,-3.3777162 2.930081,-4.5471714 0.516623,-0.6252361 1.064133,-1.26909207 1.216692,-1.43079105 L 24.600171,0 h 2.36713 2.367129 l 0.588857,0.62595701 c 0.797983,0.84826149 1.535316,1.73608519 2.833393,3.41169539 0.601245,0.7761124 1.368886,1.7048393 1.70587,2.0638376 0.796303,0.8483291 1.444321,1.771694 2.760631,3.933647 0.590706,0.970194 1.285869,2.046227 1.544812,2.391185 0.25894,0.344957 0.553122,0.785955 0.653735,0.979993 0.100616,0.194039 0.57382,0.899635 1.051568,1.567991 0.477747,0.668355 0.992682,1.449076 1.144296,1.734935 l 0.275662,0.519744 -3.370644,0.05812 c -2.610988,0.04502 -3.396662,0.03653 -3.486086,-0.03769 -0.179748,-0.149177 -0.889236,-1.314454 -1.760157,-2.890922 -0.823293,-1.490253 -1.154419,-2.018299 -1.850752,-2.951368 -0.518245,-0.694438 -0.684456,-0.842154 -0.911302,-0.809895 -0.357172,0.05079 -0.403963,0.324768 -0.466371,2.730683 -0.141324,5.448269 -0.43557,7.759183 -1.35763,10.662333 -0.184883,0.582116 -0.397645,1.270071 -0.472799,1.528789 -0.452229,1.556739 -1.736747,3.293589 -3.60869,4.879456 -0.44595,0.377802 -1.329655,1.145548 -1.963788,1.706103 -2.250696,1.989552 -3.704015,3.023589 -5.877436,4.181797 -0.733035,0.390631 -1.738509,0.873573 -2.234386,1.073203 -1.607044,0.646965 -3.756136,1.159201 -5.8987946,1.405972 -0.9741443,0.112194 -4.2219714,0.290632 -4.802738,0.263867 -0.129359,-0.006 -0.9902785,-0.03845 -1.9131542,-0.07219 z"
     style="fill:#f2f2f2;stroke-width:0.25631082;stroke-miterlimit:4;stroke-dasharray:none" />
</svg>
