<?xml version="1.0" encoding="UTF-8" standalone="no"?>
<svg
   xmlns:dc="http://purl.org/dc/elements/1.1/"
   xmlns:cc="http://creativecommons.org/ns#"
   xmlns:rdf="http://www.w3.org/1999/02/22-rdf-syntax-ns#"
   xmlns:svg="http://www.w3.org/2000/svg"
   xmlns="http://www.w3.org/2000/svg"
   id="svg8"
   version="1.1"
   viewBox="0 0 210 297"
   height="297mm"
   width="210mm">
  <defs
     id="defs2" />
  <metadata
     id="metadata5">
    <rdf:RDF>
      <cc:Work
         rdf:about="">
        <dc:format>image/svg+xml</dc:format>
        <dc:type
           rdf:resource="http://purl.org/dc/dcmitype/StillImage" />
        <dc:title></dc:title>
      </cc:Work>
    </rdf:RDF>
  </metadata>
  <g id="layer1">
    <path
       transform="scale(0.26458333)"
       id="path4589"
       d="m 245.70257,59.632399 c 0.002,-0.543921 0.32315,-3.867077 0.71429,-7.384791 0.39113,-3.517715 0.71115,-7.88648 0.71115,-9.708367 0,-1.961564 0.35339,-5.252147 0.8665,-8.068441 0.47657,-2.615755 0.97858,-5.880919 1.11558,-7.255919 0.13699,-1.375 0.39188,-2.774334 0.56641,-3.109631 0.48381,-0.92945 2.48839,-1.135796 5.01813,-0.516553 6.06453,1.48451 26.37592,0.927964 31.31102,-0.857943 0.77206,-0.279391 1.2808,-0.308569 1.42857,-0.08193 0.12623,0.193591 0.59133,0.542528 1.03356,0.775416 0.44223,0.232888 1.22645,1.261412 1.74272,2.285609 0.51627,1.024197 1.47126,2.455278 2.12222,3.180181 2.27027,2.528167 2.99257,6.694849 3.0025,17.320256 l 0.007,7.566832 -1.16072,-0.150999 c -0.63839,-0.08305 -3.08928,-0.407491 -5.44642,-0.720982 -3.17158,-0.421808 -4.88921,-0.483622 -6.60715,-0.237779 -4.08859,0.585094 -11.14665,2.260502 -14.67371,3.483173 -2.45487,0.850994 -4.82841,1.349696 -8.38769,1.76233 -2.73019,0.316518 -6.41274,0.957261 -8.18343,1.423871 -5.47663,1.4432 -5.18419,1.426508 -5.18061,0.295668 z"
       style="fill:#ffffff;stroke-width:1.16760409;stroke-miterlimit:4;stroke-dasharray:none" />
    <path
       transform="scale(0.26458333)"
       id="path4591"
       d="m 3.7351554,377.53115 c -0.3928572,-0.10133 -1.2366072,-0.34695 -1.875,-0.54581 l -1.16071432,-0.36157 -0.0212896,-2.56158 c -0.0117093,-1.40888 -0.171305,-3.36517 -0.35465711,-4.34731 -1.31134925,-7.02436 -1.45419927,-9.60113 -1.34253827,-24.21709 l 0.11134216,-14.57425 0.89285715,-0.69243 C 5.9894793,325.57459 12.17065,322.42875 23.498358,318.26431 c 5.749793,-2.11381 6.698188,-2.68209 13.977626,-8.37541 8.085604,-6.32383 12.796579,-9.06856 16.857407,-9.82153 1.137668,-0.21095 1.48375,-0.53611 2.597832,-2.44078 2.412647,-4.12477 5.018018,-7.1968 13.070365,-15.4115 4.428678,-4.51797 8.838796,-9.33949 9.80026,-10.71449 0.961465,-1.375 2.406479,-3.22322 3.211147,-4.10715 2.323496,-2.55236 4.622275,-6.55661 7.678661,-13.37548 5.871392,-13.09922 7.910767,-15.89652 14.416094,-19.77372 4.57319,-2.72564 8.91321,-7.37886 12.38556,-13.27937 0.63577,-1.08036 2.76141,-5.01786 4.72363,-8.75 1.96222,-3.73214 4.10475,-7.58928 4.76117,-8.57143 1.34848,-2.01762 5.15753,-6.4278 13.6782,-15.83686 7.33526,-8.10007 10.25618,-11.74199 14.65329,-18.27028 8.2999,-12.32269 13.06379,-21.43204 16.26833,-31.10772 1.31454,-3.96905 2.70892,-7.29536 4.32649,-10.32085 4.76172,-8.90631 9.41491,-19.22698 18.59802,-41.250001 3.44006,-8.25 6.74019,-15.961111 7.33362,-17.135804 1.78283,-3.529133 3.07553,-7.070558 5.33563,-14.617242 1.18192,-3.946539 2.55019,-8.300526 3.04061,-9.675526 1.28324,-3.597843 3.92312,-8.439106 5.68597,-10.427498 l 1.52079,-1.715359 1.25931,1.207764 c 2.10557,2.019388 2.8591,4.248261 2.97245,8.792236 0.14474,5.802302 -0.41098,9.896931 -2.38979,17.608285 -1.55892,6.075079 -1.74947,7.207523 -1.56442,9.29754 0.11589,1.308939 0.0373,3.987032 -0.17473,5.951318 -0.21199,1.964286 -0.55009,5.5 -0.75132,7.857143 -0.20124,2.357143 -0.53324,5.8125 -0.73778,7.678571 -0.31977,2.917318 -0.77896,12.715723 -1.25526,26.785713 -0.0698,2.0625 -0.40324,7.59834 -0.74091,12.30186 l -0.61397,8.55185 -1.24382,1.091 c -1.94932,1.70983 -3.50706,4.47005 -4.48438,7.94606 -0.49432,1.75813 -1.86385,5.18752 -3.0434,7.62086 -1.17955,2.43334 -2.24994,5.15386 -2.37864,6.0456 -0.14681,1.01719 -0.80043,2.48637 -1.75408,3.94277 -2.66836,4.07507 -4.76886,8.81541 -6.24727,14.09866 -0.54836,1.95964 -1.17273,3.28747 -2.00066,4.25471 -0.66193,0.77332 -1.76955,2.86642 -2.46136,4.65134 -1.61711,4.17223 -2.39657,5.42298 -3.95117,6.34022 -0.76508,0.45141 -1.59805,1.40543 -2.11111,2.4179 -0.99528,1.9641 -3.07043,4.67895 -5.95831,7.79508 -1.13996,1.23006 -2.42947,2.85644 -2.86556,3.61418 -0.4361,0.75774 -1.51754,1.83614 -2.4032,2.39644 -2.35915,1.49251 -6.42437,5.70257 -8.49334,8.79593 -0.99322,1.485 -2.31828,4.04352 -2.94458,5.68562 -1.58973,4.16813 -3.94177,8.50062 -8.11605,14.94992 -1.97064,3.04464 -4.35659,6.90179 -5.30211,8.57143 -0.94552,1.66964 -2.10713,3.59821 -2.58134,4.28571 -0.47421,0.6875 -2.62607,3.85679 -4.78191,7.04285 -3.98888,5.89508 -7.31862,9.70383 -10.45209,11.95571 -1.35147,0.97123 -1.92855,1.70689 -2.56377,3.26821 -1.8914,4.64896 -5.00972,9.05437 -13.56347,19.16181 -1.9117,2.25892 -4.49077,5.64381 -5.73128,7.52196 -1.53012,2.31665 -3.09375,4.13835 -4.86217,5.66467 -5.188186,4.47792 -8.943593,9.33836 -13.081414,16.93063 -1.975597,3.62492 -2.765165,4.7133 -4.36164,6.01228 -1.07215,0.87236 -4.279718,4.19393 -7.127932,7.38127 -5.257668,5.88368 -7.920546,8.3494 -10.520736,9.74178 -0.793953,0.42516 -2.00605,1.56309 -2.69355,2.52875 -2.699382,3.79152 -7.318296,6.43816 -17.61835,10.09529 -3.699021,1.31337 -7.475807,2.72004 -8.392857,3.12593 -0.91705,0.4059 -3.281946,1.40631 -5.255325,2.22315 -1.973376,0.81683 -6.694064,3.15118 -10.490417,5.18743 -8.359221,4.48364 -11.726174,5.72597 -16.0312993,5.9152 -1.7075347,0.0751 -3.4260372,0.0536 -3.8188943,-0.0478 z"
       style="fill:#ffffff;stroke-width:1.16760409;stroke-miterlimit:4;stroke-dasharray:none" />
    <path
       transform="scale(0.26458333)"
       id="path4597"
       d="m 156.54455,507.35876 c -0.67516,-1.4818 -1.22755,-5.51837 -1.22755,-8.97015 0,-12.12002 3.54651,-51.11662 7.04559,-77.47163 4.50649,-33.94286 4.27358,-32.90517 12.47044,-55.55839 1.90981,-5.27805 4.0181,-12.32386 4.68509,-15.65737 0.66699,-3.3335 2.57519,-10.37931 4.24043,-15.65736 1.66525,-5.27805 3.2568,-11.86929 3.53678,-14.64721 0.27998,-2.77792 1.66181,-7.7256 3.07072,-10.99484 3.42083,-7.93765 9.6115,-32.84972 12.95865,-52.14733 1.49294,-8.60735 3.29805,-17.46801 4.01136,-19.69034 2.08977,-6.51074 2.8021,-16.25695 5.43534,-74.36696 0.46877,-10.34471 1.16369,-19.3124 1.54428,-19.92821 0.38059,-0.6158 1.35911,-13.28939 2.1745,-28.16353 2.01315,-36.72365 3.12905,-49.284387 4.95734,-55.800828 0.85234,-3.037893 1.5497,-8.998423 1.5497,-13.245621 0,-7.059355 -0.26012,-8.049492 -3.03046,-11.535514 -5.48324,-6.899756 -3.4488,-9.29475 6.89031,-8.111462 4.34593,0.497382 7.31029,0.164323 12.22819,-1.373894 3.57038,-1.116739 6.91743,-1.767256 7.43789,-1.445592 0.52363,0.323618 0.68378,3.121036 0.35856,6.262972 -0.32326,3.122971 -1.17018,11.360237 -1.88206,18.305035 -1.2665,12.355629 -1.44369,72.259904 -0.23525,79.537244 0.86159,5.18862 2.38324,5.43106 21.27381,3.38945 9.38469,-1.01426 18.41773,-1.90851 20.0734,-1.98722 4.52344,-0.21504 6.56742,-2.97502 7.63479,-10.30926 1.56561,-10.75771 3.18293,-50.159464 2.82387,-68.796096 -0.33594,-17.437112 -0.34621,-17.50507 -3.30079,-21.862672 -2.45801,-3.625208 -2.7166,-4.531978 -1.51523,-5.313353 0.79671,-0.51819 2.58499,-0.633611 3.97395,-0.256491 1.38896,0.37712 6.7019,0.732212 11.80654,0.789093 5.10464,0.05688 9.56717,0.389432 9.91674,0.739002 0.34956,0.349569 0.14691,4.149036 -0.45037,8.44326 -3.17118,22.799924 -1.92796,111.277087 1.85462,131.989227 2.98625,16.35167 7.79315,34.09181 11.22438,41.42419 1.81323,3.87477 3.67739,10.30312 4.547,15.67979 0.81063,5.01195 2.84284,14.71883 4.51605,21.57085 2.19421,8.98565 3.19749,15.99046 3.59936,25.13067 0.30645,6.96986 1.20056,15.39989 1.98693,18.73339 0.78636,3.33351 2.1789,9.90977 3.09453,14.61393 0.91562,4.70415 3.40287,14.02281 5.52722,20.70813 4.62744,14.56253 8.06176,29.76561 11.64521,51.55106 1.4622,8.88934 3.24103,18.43529 3.95298,21.21321 5.17043,20.17433 9.15718,34.21431 11.18677,39.39594 1.30568,3.33351 4.02315,11.74303 6.03878,18.68783 2.01565,6.9448 5.21815,17.24906 7.11666,22.89837 1.89852,5.6493 3.45185,10.71456 3.45185,11.25614 0,1.70156 -2.7371,2.18262 -21.74885,3.82252 -21.69317,1.87118 -24.02224,1.42882 -24.47723,-4.64902 -0.14528,-1.94068 -1.14326,-8.52877 -2.21773,-14.64019 -1.07448,-6.11142 -2.47248,-19.06663 -3.10668,-28.78935 -0.6342,-9.72272 -1.51241,-19.49594 -1.95157,-21.71828 -1.78974,-9.05668 -13.4803,-52.01423 -20.20556,-74.24621 -7.84064,-25.9192 -9.6443,-36.26238 -8.85164,-50.76017 l 0.48326,-8.83883 h -35.11317 -35.11316 l -5.31223,2.77792 c -5.15043,2.69331 -5.52424,3.19327 -12.27316,16.41498 -5.90416,11.56675 -7.3546,15.47733 -9.55397,25.75889 -1.42617,6.667 -3.71489,17.12208 -5.08605,23.23351 -5.14366,22.92589 -8.8487,43.71112 -10.62375,59.599 -1.14325,10.23276 -0.34367,59.27116 1.11611,68.45187 0.50919,3.20233 1.06335,9.79357 1.23147,14.64721 l 0.30568,8.8248 -6.05706,0.12783 c -3.33138,0.0703 -9.90819,0.62287 -14.61512,1.2279 -4.70694,0.60502 -12.43772,1.39757 -17.1795,1.7612 l -8.62144,0.66115 z m 136.4755,-267.10392 c 0.65611,-0.5426 2.55663,-1.14042 4.22338,-1.32847 2.52431,-0.28482 3.00227,-0.76372 2.8617,-2.86731 -0.56383,-8.43743 -7.7783,-33.35964 -11.89617,-41.09505 -2.12062,-3.98357 -2.58229,-6.22977 -2.58229,-12.56385 0,-9.35094 -0.94705,-10.46018 -9.00373,-10.54567 -3.10391,-0.0329 -9.05274,-0.19034 -13.21962,-0.3498 -4.16688,-0.15946 -8.82621,0.19716 -10.35407,0.79249 l -2.77792,1.08242 v 15.73674 c 0,15.23522 -0.11034,16.06655 -3.46232,26.08525 -3.86607,11.55525 -5.54874,22.18387 -3.69356,23.33044 0.63614,0.39315 5.34751,0.91827 10.46971,1.16691 5.12219,0.24865 13.4042,0.85363 18.40445,1.34442 10.29114,1.01008 19.26233,0.67372 21.03044,-0.78852 z"
       style="fill:#ffffff;stroke-width:3.30248308;stroke-miterlimit:4;stroke-dasharray:none" />
  </g>
</svg>
