<?xml version="1.0" encoding="UTF-8" standalone="no"?>
<svg
   xmlns:dc="http://purl.org/dc/elements/1.1/"
   xmlns:cc="http://creativecommons.org/ns#"
   xmlns:rdf="http://www.w3.org/1999/02/22-rdf-syntax-ns#"
   xmlns:svg="http://www.w3.org/2000/svg"
   xmlns="http://www.w3.org/2000/svg"
   id="svg8"
   version="1.1"
   viewBox="0 0 152.6563 63.300266"
   height="63.300266mm"
   width="152.6563mm">
  <defs
     id="defs2" />
  <metadata
     id="metadata5">
    <rdf:RDF>
      <cc:Work
         rdf:about="">
        <dc:format>image/svg+xml</dc:format>
        <dc:type
           rdf:resource="http://purl.org/dc/dcmitype/StillImage" />
        <dc:title></dc:title>
      </cc:Work>
    </rdf:RDF>
  </metadata>
  <g
     transform="translate(-0.37903352,-0.58659005)"
     id="layer2">
    <path
       id="path4862"
       d="m 66.103647,63.479789 c -1.072674,-0.14813 -1.800326,-0.349526 -2.699359,-0.747123 l -0.736539,-0.325731 0.09024,-5.176155 c 0.04963,-2.846885 0.155181,-6.799818 0.234554,-8.784293 0.07937,-1.984479 0.153715,-4.660514 0.165203,-5.946749 0.02074,-2.321041 0.01797,-2.344938 -0.368343,-3.181604 -1.075158,-2.328545 -3.465708,-2.839447 -4.677663,-0.999699 -0.410303,0.622843 -0.746213,1.872602 -0.746213,2.776313 0,0.372356 -0.05761,1.156517 -0.128008,1.742583 -0.184991,1.53989 -0.384881,4.710927 -0.543115,8.615936 -0.146421,3.613356 -0.349017,6.899238 -0.485238,7.869875 l -0.08235,0.586783 -1.552213,-0.07699 c -1.712534,-0.08494 -2.573634,-0.299617 -3.918569,-0.976913 -0.808712,-0.40726 -0.911172,-0.50492 -1.042874,-0.994032 -0.307514,-1.142026 -0.111202,-6.331677 0.414306,-10.952305 0.21899,-1.9255 0.824428,-5.489038 1.725528,-10.156243 0.922668,-4.778928 1.495181,-8.127251 1.805109,-10.557144 0.117181,-0.91874 0.396039,-2.655896 0.619686,-3.860348 0.511955,-2.757167 0.508931,-4.330697 -0.0094,-4.882139 -0.577038,-0.613913 -1.60451,-0.445974 -3.217352,0.52587 -0.404246,0.243583 -1.456618,0.75665 -2.338609,1.140148 -4.371417,1.900734 -13.553025,6.250244 -16.847593,7.981039 -1.391197,0.730864 -3.852431,1.996311 -5.469411,2.812106 -1.616982,0.815792 -3.767891,1.937326 -4.779798,2.492298 -1.011907,0.554971 -3.146724,1.573432 -4.744035,2.263246 -1.59731,0.689813 -4.587998,1.99042 -6.645974,2.890234 -2.0579753,0.899816 -4.8542827,2.107906 -6.2140164,2.684642 L 1.4393696,41.292013 1.147255,40.962938 C 0.74228931,40.50673 0.6372836,39.585869 0.82586431,38.144461 1.0925931,36.105738 0.91433061,36.317309 3.111387,35.431881 c 3.6617986,-1.475726 5.6055632,-2.37781 14.497789,-6.728288 3.086963,-1.510281 7.807611,-3.751341 10.49033,-4.980138 4.713242,-2.158857 9.906664,-4.675724 13.611336,-6.596406 0.981564,-0.508892 3.026177,-1.42149 4.543583,-2.027997 5.345727,-2.136685 7.306932,-3.345885 8.784056,-5.4158875 0.782926,-1.0971736 1.255347,-2.1497927 1.255347,-2.7970897 0,-0.6883337 -0.435665,-1.6129643 -1.380368,-2.9296037 -0.415348,-0.5788729 -0.755177,-1.1616796 -0.755177,-1.2951264 0,-0.3885089 0.435404,-0.5209887 1.900421,-0.5782366 0.755496,-0.029522 1.463833,-0.086303 1.574082,-0.1261792 0.11025,-0.039876 0.861944,-0.1682065 1.670437,-0.285178 4.90788,-0.71006758 10.280539,-0.89368047 15.902535,-0.5434756 4.034832,0.2513372 5.168611,0.3839229 5.947277,0.6954827 0.904947,0.3620873 0.669685,0.9700236 -0.802338,2.0733144 l -0.467722,0.3505605 7.93e-4,1.3192209 c 5.29e-4,1.19492 0.03699,1.3884248 0.386411,2.05369 0.212172,0.4039579 0.729729,1.0654498 1.150125,1.4699824 1.173681,1.1293928 2.529806,1.8449968 7.215897,3.8077078 0.992237,0.415587 2.385986,1.08588 3.097212,1.489541 2.830822,1.606645 10.569687,5.115809 16.614117,7.533619 7.52332,3.009376 19.40541,7.10892 26.39267,9.105966 1.28623,0.36762 3.15044,0.930566 4.14268,1.250984 0.99223,0.320421 3.4578,1.070396 5.47902,1.666608 2.02123,0.596215 4.7123,1.425641 5.98016,1.843172 l 2.3052,0.759151 v 2.174422 c 0,1.579978 -0.0431,2.174425 -0.15748,2.174425 -0.30354,0 -7.9895,-2.002424 -14.54235,-3.788719 -3.6382,-0.99177 -8.02811,-2.172354 -9.75534,-2.623518 -5.11458,-1.335974 -7.51211,-2.079959 -10.75119,-3.336232 -1.10601,-0.428964 -2.54592,-0.908344 -3.1998,-1.065289 -1.86399,-0.447398 -3.6074,-1.193848 -8.2562,-3.534937 -3.07578,-1.548921 -4.85477,-2.358845 -6.179089,-2.813164 -2.091156,-0.717383 -4.999596,-1.937112 -9.432383,-3.955716 -1.65373,-0.753076 -4.016573,-1.809165 -5.250762,-2.346868 -1.234191,-0.537702 -2.655464,-1.25119 -3.158389,-1.585534 -0.502925,-0.334346 -0.966457,-0.607883 -1.030071,-0.607867 -0.140594,4e-5 -0.250997,2.840826 -0.233709,6.013535 0.01368,2.509353 0.119645,3.786746 0.72059,8.686257 0.211852,1.72723 0.451223,3.952248 0.531935,4.944489 0.985639,12.117056 1.377595,15.462403 2.477881,21.148574 0.384966,1.989471 0.411808,2.829115 0.114212,3.572875 -0.421552,1.053566 -1.197247,1.338913 -3.860207,1.420016 -2.359853,0.07187 -3.676824,0.313902 -7.14946,1.3139 -3.81187,1.09769 -5.676712,1.384218 -7.431688,1.141865 z m 10.824056,-9.138362 c 0.571021,-0.238588 0.579453,-0.316981 0.48809,-4.538176 l -0.07187,-3.320452 -0.400904,-0.320431 c -0.695722,-0.556075 -1.549898,-0.375616 -1.872094,0.395512 -0.249933,0.59817 -0.175567,7.207753 0.08462,7.521263 0.375465,0.452406 1.070821,0.555321 1.772155,0.262284 z M 76.336248,42.432923 c 0.162547,-0.330965 0.206044,-1.499658 0.249322,-6.699036 0.05829,-7.002811 0.02148,-7.446978 -0.676661,-8.167285 -0.503888,-0.519882 -0.755002,-0.543438 -1.163042,-0.109096 l -0.306041,0.325763 0.06749,6.857106 c 0.06909,7.019692 0.101415,7.445155 0.610322,8.03289 0.328028,0.378844 0.977413,0.250767 1.21861,-0.240342 z M 64.152874,32.950608 c 0.146365,-0.146365 0.176003,-4.618434 0.04658,-7.028412 -0.344853,-6.42152 -1.06798,-8.606536 -2.848325,-8.606536 -0.482864,0 -0.614005,0.07454 -1.125939,0.639992 -0.374092,0.413195 -0.650312,0.885685 -0.77946,1.33331 -0.292687,1.014439 -0.847754,3.983741 -1.003943,5.370536 -0.0745,0.661493 -0.226864,2.020512 -0.338587,3.020041 -0.241525,2.160816 -0.271365,4.873284 -0.05508,5.006957 0.410401,0.253643 5.878648,0.490217 6.104754,0.264112 z M 76.619212,10.972215 c 0.380058,-0.380058 0.390626,-0.427054 0.390626,-1.7372522 0,-1.1684477 -0.03536,-1.381991 -0.267269,-1.6138967 -0.314965,-0.314965 -0.03106,-0.2862458 -3.541321,-0.3582347 -3.841194,-0.078775 -3.816932,-0.078873 -3.911534,0.015727 -0.04616,0.046167 -0.08699,0.8602604 -0.09072,1.8090962 -0.0049,1.2428394 0.04171,1.7740224 0.166653,1.8999444 0.229568,0.231361 1.442569,0.328705 4.413832,0.354214 l 2.449115,0.02103 z M 63.25161,10.611665 c 0.08077,-0.212438 0.09786,-0.9750272 0.04345,-1.937956 L 63.205329,7.0860228 62.657444,6.9232093 C 61.829983,6.6773132 60.556281,6.7117564 60.129223,6.9915766 l -0.35827,0.2347465 v 1.7787162 c 0,0.978294 0.04009,1.8188067 0.08909,1.8678057 0.049,0.049 0.802182,0.08909 1.673743,0.08909 h 1.584651 z"
       style="fill:#e6e6e6;stroke-width:0.43689099;stroke-miterlimit:4;stroke-dasharray:none" />
    <path
       id="path4864"
       d="m 85.377439,44.342428 c -0.09196,-8.134485 0.02215,-12.668951 0.392343,-15.590954 0.306128,-2.416341 0.31024,-7.868927 0.0075,-9.937228 -0.269926,-1.844085 -0.158459,-2.43091 0.352552,-1.856039 0.399401,0.449315 0.4558,1.136343 0.353795,4.309721 -0.05552,1.727229 -0.106997,6.117132 -0.114395,9.755338 -0.0074,3.638206 -0.06907,7.426751 -0.137052,8.418989 -0.428971,6.261298 -0.452847,7.058575 -0.277764,9.275622 0.178466,2.259931 0.102129,3.036784 -0.314106,3.196508 -0.144364,0.0554 -0.192228,-1.323295 -0.262866,-7.571957 z"
       style="fill:#e6e6e6;stroke-width:0.43689099;stroke-miterlimit:4;stroke-dasharray:none" />
    <path
       id="path4866"
       d="m 88.701144,48.972669 c -0.0528,-1.079195 -0.065,-5.773193 -0.0273,-10.431103 0.059,-7.271897 0.10251,-8.675858 0.30814,-9.932943 0.31164,-1.905154 0.35602,-9.02908 0.0701,-11.245531 -0.19028,-1.47486 -0.13236,-1.807284 0.28441,-1.632077 0.25749,0.10825 0.50267,0.723389 0.52338,1.313146 0.008,0.240875 -0.0255,1.854386 -0.0755,3.585584 -0.05,1.731196 -0.11351,6.507545 -0.14114,10.614104 -0.0348,5.170791 -0.11458,8.254209 -0.2595,10.028501 -0.2493,3.052067 -0.26496,4.765409 -0.0635,6.945491 0.12886,1.394314 0.12053,1.695183 -0.06,2.168 -0.11529,0.301954 -0.26666,0.549004 -0.33638,0.549004 -0.0697,0 -0.16994,-0.882977 -0.2227,-1.962176 z"
       style="fill:#e6e6e6;stroke-width:0.45728406;stroke-miterlimit:4;stroke-dasharray:none" />
    <path
       id="path4868"
       d="m 92.040784,48.320375 c -0.14306,-2.86194 0.0189,-16.187862 0.21263,-17.492189 0.19061,-1.283496 0.23642,-6.90509 0.0768,-9.421251 -0.11141,-1.755799 -0.10784,-1.797667 0.13363,-1.56481 0.23786,0.229381 0.24644,0.626682 0.20767,9.621703 -0.0223,5.160343 -0.10448,10.344615 -0.18274,11.520601 -0.12122,1.821431 -0.1365,3.933169 -0.0592,8.17862 0.008,0.463351 -0.0522,0.895884 -0.13745,0.981075 -0.11429,0.114154 -0.17731,-0.343226 -0.25133,-1.823749 z"
       style="fill:#e6e6e6;stroke-width:0.43689099;stroke-miterlimit:4;stroke-dasharray:none" />
    <path
       id="path4870"
       d="m 96.412934,36.964641 c 0.003,-0.220498 0.0327,-0.294523 0.0666,-0.164499 0.0339,0.130022 0.0317,0.310428 -0.005,0.400902 -0.0366,0.09048 -0.0643,-0.0159 -0.0616,-0.236403 z"
       style="fill:#e6e6e6;stroke-width:0.43689099;stroke-miterlimit:4;stroke-dasharray:none" />
    <path
       id="path4872"
       d="m 95.589324,42.656146 c -0.003,-6.713087 0.0372,-8.733546 0.20829,-10.356693 0.16407,-1.556626 0.1947,-2.79376 0.13429,-5.424236 -0.043,-1.874229 -0.11442,-3.7234 -0.15862,-4.109271 -0.0864,-0.754142 0.0778,-0.934384 0.36531,-0.400902 0.16167,0.300033 0.16445,1.1849 0.0459,14.599597 -0.0195,2.204974 -0.10831,4.971214 -0.19737,6.1472 -0.10244,1.3525 -0.12923,3.095672 -0.0729,4.744032 0.0762,2.230027 0.0595,2.644428 -0.1158,2.873147 -0.18471,0.241007 -0.20526,-0.552299 -0.20909,-8.072874 z"
       style="fill:#e6e6e6;stroke-width:0.43689099;stroke-miterlimit:4;stroke-dasharray:none" />
    <path
       id="path4874"
       d="m 99.543804,49.788411 c -0.0458,-0.119428 -0.0821,-3.444518 -0.0806,-7.389082 0.002,-5.29758 0.0534,-7.660889 0.1965,-9.042826 0.23114,-2.232277 0.26105,-7.066328 0.0533,-8.610206 -0.15886,-1.180388 -0.0301,-1.661411 0.28645,-1.069972 0.194586,0.363577 0.186826,2.826221 -0.0408,12.95423 -0.0867,3.858702 -0.15912,8.408596 -0.16091,10.110869 -0.003,2.914343 -0.0569,3.560561 -0.25402,3.046987 z"
       style="fill:#e6e6e6;stroke-width:0.43689099;stroke-miterlimit:4;stroke-dasharray:none" />
    <path
       id="path4876"
       d="m 104.1741,38.100537 c 0,-0.330747 0.0261,-0.466053 0.0579,-0.30068 0.0319,0.165375 0.0319,0.435986 0,0.601358 -0.0318,0.165373 -0.0579,0.03007 -0.0579,-0.300678 z"
       style="fill:#e6e6e6;stroke-width:0.43689099;stroke-miterlimit:4;stroke-dasharray:none" />
    <path
       id="path4878"
       d="m 103.42135,48.698595 c -0.13809,-0.138092 -0.0823,-13.40502 0.0595,-14.139379 0.21857,-1.132263 0.30931,-6.540214 0.13205,-7.87024 -0.10901,-0.817946 -0.11534,-1.231556 -0.0203,-1.326597 0.20522,-0.205226 0.57028,0.762056 0.48534,1.286016 -0.0381,0.235 -0.10013,3.483623 -0.13786,7.219161 -0.0377,3.735538 -0.13394,7.644357 -0.2138,8.68626 -0.0844,1.101336 -0.10654,2.768433 -0.0529,3.982297 0.0855,1.933188 0.0263,2.440837 -0.25204,2.162482 z"
       style="fill:#e6e6e6;stroke-width:0.43689099;stroke-miterlimit:4;stroke-dasharray:none" />
    <path
       id="path4880"
       d="m 106.86099,48.505277 c -0.0193,-0.09771 -0.0359,-2.930967 -0.037,-6.296136 -0.002,-5.537729 0.006,-6.161093 0.0778,-6.567337 0.38169,-2.148517 0.46622,-5.378299 0.18919,-7.228795 -0.0447,-0.298836 -0.0814,-0.74532 -0.0814,-0.992187 0,-0.420132 0.006,-0.449752 0.0993,-0.463029 0.14481,-0.02066 0.37938,0.270571 0.47058,0.584285 0.0523,0.179829 0.0672,0.34726 0.0474,0.531317 -0.0431,0.400669 -0.11814,5.340784 -0.13859,9.127562 -0.017,3.150597 -0.0251,3.415318 -0.1494,4.890066 -0.15572,1.847588 -0.182,3.69462 -0.0718,5.044731 0.0854,1.046115 0.0302,1.332359 -0.29022,1.503828 -0.0678,0.0363 -0.0867,0.0145 -0.116,-0.134305 z"
       style="fill:#e6e6e6;stroke-width:0.15446429;stroke-miterlimit:4;stroke-dasharray:none" />
    <path
       id="path4882"
       d="m 110.22782,47.630736 c -0.0502,-0.575368 -0.0756,-7.68913 -0.0328,-9.224981 0.0331,-1.191752 0.0664,-1.698318 0.14112,-2.149739 0.34154,-2.063168 0.37956,-4.556604 0.0936,-6.139416 -0.091,-0.503711 -0.11164,-0.834014 -0.0605,-0.967396 0.0705,-0.183689 0.3818,-0.0035 0.54432,0.315066 0.11266,0.220845 0.11156,0.174633 0.0483,2.019798 -0.0254,0.740595 -0.0587,3.015541 -0.0739,5.05543 -0.0302,4.040336 -0.0392,4.341167 -0.17171,5.740514 -0.0492,0.519716 -0.11565,1.365996 -0.14765,1.880621 -0.0524,0.842942 -0.0494,1.023231 0.0309,1.819011 0.13991,1.387483 0.10875,1.752957 -0.16177,1.89774 -0.15852,0.08484 -0.18349,0.0555 -0.20987,-0.246648 z"
       style="fill:#e6e6e6;stroke-width:0.15446429;stroke-miterlimit:4;stroke-dasharray:none" />
    <path
       id="path4884"
       d="m 113.95536,47.585194 c -0.0179,-0.267293 -0.0229,-2.654623 -0.011,-5.305182 0.019,-4.254272 0.0307,-4.860734 0.0996,-5.173549 0.0429,-0.194894 0.12166,-0.673272 0.17493,-1.063058 0.17687,-1.294138 0.17205,-3.936588 -0.009,-4.783402 -0.0884,-0.414216 -0.13769,-0.882021 -0.10899,-1.035 0.0244,-0.129895 0.0511,-0.158348 0.1488,-0.158348 0.28459,0 0.57459,0.541367 0.51084,0.953617 -0.0473,0.305993 -0.11717,3.983521 -0.13848,7.29099 -0.0184,2.851129 -0.0229,2.971562 -0.16887,4.51209 -0.15677,1.654149 -0.19299,2.86552 -0.10315,3.449032 0.0761,0.494104 0.11349,1.107895 0.0797,1.307865 -0.0354,0.20946 -0.18901,0.417737 -0.34042,0.461531 -0.098,0.02833 -0.10282,0.0118 -0.13421,-0.456586 z"
       style="fill:#e6e6e6;stroke-width:0.15446429;stroke-miterlimit:4;stroke-dasharray:none" />
    <path
       id="path4886"
       d="m 118.1646,47.25276 c -0.0142,-0.136424 -0.0378,-1.75759 -0.0524,-3.602585 -0.031,-3.901903 0.017,-5.848897 0.16219,-6.575096 0.33516,-1.676565 0.37458,-3.952124 0.094,-5.425647 -0.11014,-0.578411 -0.1182,-0.847659 -0.0243,-0.811625 0.0363,0.01392 0.15534,0.05209 0.2646,0.08483 0.25716,0.07705 0.34884,0.219414 0.3414,0.53017 -0.003,0.134133 -0.0272,0.913603 -0.0534,1.732158 -0.0261,0.818555 -0.0582,2.923238 -0.0712,4.677074 -0.013,1.753838 -0.0354,3.295272 -0.0498,3.42541 -0.28066,2.547289 -0.34177,3.839593 -0.21895,4.630589 0.0849,0.547066 0.0918,1.195774 0.0142,1.334238 -0.0498,0.0887 -0.27993,0.248536 -0.35792,0.248536 -0.0124,0 -0.0342,-0.111619 -0.0483,-0.248047 z"
       style="fill:#e6e6e6;stroke-width:0.15446429;stroke-miterlimit:4;stroke-dasharray:none" />
    <path
       id="path4888"
       d="m 121.18331,46.08131 c -0.0593,-0.269965 -0.0478,-7.55563 0.0124,-7.864541 0.0304,-0.155916 0.0993,-0.496094 0.15322,-0.755954 0.2943,-1.419424 0.31009,-3.012856 0.0417,-4.207534 -0.12303,-0.547569 -0.10912,-0.748641 0.053,-0.766189 0.29583,-0.03202 0.60536,0.36099 0.54426,0.69105 -0.0445,0.240437 -0.11408,3.159503 -0.13698,5.747332 -0.0179,2.022829 -0.0279,2.238811 -0.14506,3.118302 -0.16087,1.208006 -0.20499,2.297002 -0.11553,2.851497 0.0363,0.224702 0.0659,0.564533 0.0659,0.755179 0,0.321222 -0.01,0.354991 -0.13256,0.460661 -0.18445,0.158654 -0.30122,0.148431 -0.34037,-0.0298 z"
       style="fill:#e6e6e6;stroke-width:0.15446429;stroke-miterlimit:4;stroke-dasharray:none" />
    <path
       id="path4890"
       d="m 124.87405,46.118833 c -0.0134,-0.11044 -0.0359,-1.285121 -0.0501,-2.610398 -0.0264,-2.483733 0.0226,-4.575884 0.1129,-4.812 0.0283,-0.074 0.10618,-0.424807 0.1731,-0.779577 0.21785,-1.155009 0.20471,-2.6139 -0.032,-3.558595 -0.10016,-0.399645 -0.11083,-0.548751 -0.0465,-0.650365 0.0591,-0.0933 0.37164,0.0013 0.5176,0.156705 0.12431,0.132321 0.1831,0.459058 0.10984,0.610471 -0.0483,0.09986 -0.10833,2.934554 -0.12624,5.962303 -0.007,1.128038 -0.0227,1.376826 -0.13853,2.14974 -0.17312,1.155255 -0.20665,1.96293 -0.10576,2.547855 0.0797,0.46209 0.0981,0.837991 0.0475,0.969931 -0.0322,0.08394 -0.25575,0.21473 -0.36701,0.21473 -0.0474,0 -0.0783,-0.06544 -0.0947,-0.2008 z"
       style="fill:#e6e6e6;stroke-width:0.15446429;stroke-miterlimit:4;stroke-dasharray:none" />
    <path
       id="path4864-0"
       d="m 82.462306,43.947209 c -0.09196,-8.43109 0.02215,-13.130896 0.392343,-16.159443 0.306128,-2.504448 0.31024,-8.155852 0.0075,-10.299568 -0.269926,-1.911325 -0.158459,-2.519548 0.352552,-1.923715 0.399401,0.465698 0.4558,1.177776 0.353795,4.466865 -0.05552,1.790209 -0.106997,6.340181 -0.114395,10.111046 -0.0074,3.770865 -0.06907,7.697551 -0.137052,8.725968 -0.428971,6.489602 -0.452847,7.31595 -0.277764,9.613837 0.178466,2.342336 0.102129,3.147513 -0.314106,3.313061 -0.144364,0.05742 -0.192228,-1.371546 -0.262866,-7.848051 z"
       style="fill:#e6e6e6;stroke-width:0.44478479;stroke-miterlimit:4;stroke-dasharray:none" />
    <path
       id="path4890-8"
       d="m 128.13208,45.211506 c -0.0134,-0.11044 -0.0359,-1.285121 -0.0501,-2.610398 -0.0264,-2.483733 0.0226,-4.575884 0.1129,-4.812 0.0283,-0.074 0.10618,-0.424807 0.1731,-0.779577 0.21785,-1.155009 0.20471,-2.6139 -0.032,-3.558595 -0.10016,-0.399645 -0.11083,-0.548751 -0.0465,-0.650365 0.0591,-0.0933 0.37164,0.0013 0.5176,0.156705 0.12431,0.132321 0.1831,0.459058 0.10984,0.610471 -0.0483,0.09986 -0.10833,2.934554 -0.12624,5.962303 -0.007,1.128038 -0.0227,1.376826 -0.13853,2.14974 -0.17312,1.155255 -0.20665,1.96293 -0.10576,2.547855 0.0797,0.46209 0.0981,0.837991 0.0475,0.969931 -0.0322,0.08394 -0.25575,0.21473 -0.36701,0.21473 -0.0474,0 -0.0783,-0.06544 -0.0947,-0.2008 z"
       style="fill:#e6e6e6;stroke-width:0.15446429;stroke-miterlimit:4;stroke-dasharray:none" />
    <path
       id="path4890-8-9"
       d="m 130.77793,45.211506 c -0.0134,-0.11044 -0.0359,-1.285121 -0.0501,-2.610398 -0.0264,-2.483733 0.0226,-4.575884 0.1129,-4.812 0.0283,-0.074 0.10618,-0.424807 0.1731,-0.779577 0.21785,-1.155009 0.20471,-2.6139 -0.032,-3.558595 -0.10016,-0.399645 -0.11083,-0.548751 -0.0465,-0.650365 0.0591,-0.0933 0.37164,0.0013 0.5176,0.156705 0.12431,0.132321 0.1831,0.459058 0.10984,0.610471 -0.0483,0.09986 -0.10833,2.934554 -0.12624,5.962303 -0.007,1.128038 -0.0227,1.376826 -0.13853,2.14974 -0.17312,1.155255 -0.20665,1.96293 -0.10576,2.547855 0.0797,0.46209 0.0981,0.837991 0.0475,0.969931 -0.0322,0.08394 -0.25575,0.21473 -0.36701,0.21473 -0.0474,0 -0.0783,-0.06544 -0.0947,-0.2008 z"
       style="fill:#e6e6e6;stroke-width:0.15446429;stroke-miterlimit:4;stroke-dasharray:none" />
    <path
       id="path4890-8-5"
       d="m 133.42378,45.211506 c -0.0134,-0.11044 -0.0359,-1.285121 -0.0501,-2.610398 -0.0264,-2.483733 0.0226,-4.575884 0.1129,-4.812 0.0283,-0.074 0.10618,-0.424807 0.1731,-0.779577 0.21785,-1.155009 0.20471,-2.6139 -0.032,-3.558595 -0.10016,-0.399645 -0.11083,-0.548751 -0.0465,-0.650365 0.0591,-0.0933 0.37164,0.0013 0.5176,0.156705 0.12431,0.132321 0.1831,0.459058 0.10984,0.610471 -0.0483,0.09986 -0.10833,2.934554 -0.12624,5.962303 -0.007,1.128038 -0.0227,1.376826 -0.13853,2.14974 -0.17312,1.155255 -0.20665,1.96293 -0.10576,2.547855 0.0797,0.46209 0.0981,0.837991 0.0475,0.969931 -0.0322,0.08394 -0.25575,0.21473 -0.36701,0.21473 -0.0474,0 -0.0783,-0.06544 -0.0947,-0.2008 z"
       style="fill:#e6e6e6;stroke-width:0.15446429;stroke-miterlimit:4;stroke-dasharray:none" />
    <path
       id="path4890-8-8"
       d="m 136.06963,45.211506 c -0.0134,-0.11044 -0.0359,-1.285121 -0.0501,-2.610398 -0.0264,-2.483733 0.0226,-4.575884 0.1129,-4.812 0.0283,-0.074 0.10618,-0.424807 0.1731,-0.779577 0.21785,-1.155009 0.20471,-2.6139 -0.032,-3.558595 -0.10016,-0.399645 -0.11083,-0.548751 -0.0465,-0.650365 0.0591,-0.0933 0.37164,0.0013 0.5176,0.156705 0.12431,0.132321 0.1831,0.459058 0.10984,0.610471 -0.0483,0.09986 -0.10833,2.934554 -0.12624,5.962303 -0.007,1.128038 -0.0227,1.376826 -0.13853,2.14974 -0.17312,1.155255 -0.20665,1.96293 -0.10576,2.547855 0.0797,0.46209 0.0981,0.837991 0.0475,0.969931 -0.0322,0.08394 -0.25575,0.21473 -0.36701,0.21473 -0.0474,0 -0.0783,-0.06544 -0.0947,-0.2008 z"
       style="fill:#e6e6e6;stroke-width:0.15446429;stroke-miterlimit:4;stroke-dasharray:none" />
    <path
       id="path4890-8-3"
       d="m 138.71548,44.70334 c -0.0134,-0.09889 -0.0359,-1.150711 -0.0501,-2.337379 -0.0264,-2.223962 0.0226,-4.097297 0.1129,-4.308718 0.0283,-0.06626 0.10618,-0.380377 0.1731,-0.698041 0.21785,-1.034208 0.20471,-2.340515 -0.032,-3.186406 -0.10016,-0.357846 -0.11083,-0.491357 -0.0465,-0.582344 0.0591,-0.08354 0.37164,0.0012 0.5176,0.140316 0.12431,0.118481 0.1831,0.411045 0.10984,0.546622 -0.0483,0.08942 -0.10833,2.627632 -0.12624,5.338712 -0.007,1.010058 -0.0227,1.232825 -0.13853,1.924901 -0.17312,1.034428 -0.20665,1.757629 -0.10576,2.281377 0.0797,0.413761 0.0981,0.750347 0.0475,0.868487 -0.0322,0.07516 -0.25575,0.192272 -0.36701,0.192272 -0.0474,0 -0.0783,-0.0586 -0.0947,-0.179799 z"
       style="fill:#e6e6e6;stroke-width:0.14616363;stroke-miterlimit:4;stroke-dasharray:none" />
    <path
       id="path4890-8-3-9"
       d="m 141.45571,44.032581 c -0.0134,-0.08321 -0.0359,-0.968298 -0.0501,-1.966853 -0.0264,-1.871416 0.0226,-3.447786 0.1129,-3.625692 0.0283,-0.05576 0.10618,-0.320079 0.1731,-0.587386 0.21785,-0.870264 0.20471,-1.969493 -0.032,-2.681291 -0.10016,-0.30112 -0.11083,-0.413466 -0.0465,-0.49003 0.0591,-0.0703 0.37164,0.001 0.5176,0.118073 0.12431,0.0997 0.1831,0.345885 0.10984,0.45997 -0.0483,0.07524 -0.10833,2.211095 -0.12624,4.49241 -0.007,0.849941 -0.0227,1.037395 -0.13853,1.619762 -0.17312,0.870448 -0.20665,1.479006 -0.10576,1.919729 0.0797,0.34817 0.0981,0.6314 0.0475,0.730812 -0.0322,0.06325 -0.25575,0.161793 -0.36701,0.161793 -0.0474,0 -0.0783,-0.04931 -0.0947,-0.151297 z"
       style="fill:#e6e6e6;stroke-width:0.13407899;stroke-miterlimit:4;stroke-dasharray:none" />
    <path
       id="path4890-8-3-97"
       d="m 144.29055,44.443858 c -0.0134,-0.08569 -0.0359,-0.9971 -0.0501,-2.025358 -0.0264,-1.92708 0.0226,-3.55034 0.1129,-3.733538 0.0283,-0.05741 0.10618,-0.329599 0.1731,-0.604858 0.21785,-0.896149 0.20471,-2.028074 -0.032,-2.761046 -0.10016,-0.310076 -0.11083,-0.425764 -0.0465,-0.504605 0.0591,-0.07239 0.37164,10e-4 0.5176,0.121585 0.12431,0.102664 0.1831,0.356173 0.10984,0.473652 -0.0483,0.07748 -0.10833,2.276864 -0.12624,4.626036 -0.007,0.875223 -0.0227,1.068252 -0.13853,1.667942 -0.17312,0.89634 -0.20665,1.522999 -0.10576,1.976831 0.0797,0.358527 0.0981,0.650182 0.0475,0.752551 -0.0322,0.06513 -0.25575,0.166605 -0.36701,0.166605 -0.0474,0 -0.0783,-0.05078 -0.0947,-0.155797 z"
       style="fill:#e6e6e6;stroke-width:0.13605846;stroke-miterlimit:4;stroke-dasharray:none" />
    <path
       id="path4890-8-3-4"
       d="m 147.31436,43.8049 c -0.0134,-0.07331 -0.0359,-0.85309 -0.0501,-1.732837 -0.0264,-1.648754 0.0226,-3.037568 0.1129,-3.194307 0.0283,-0.04912 0.10618,-0.281996 0.1731,-0.517499 0.21785,-0.766719 0.20471,-1.735162 -0.032,-2.362271 -0.10016,-0.265292 -0.11083,-0.364272 -0.0465,-0.431726 0.0591,-0.06193 0.37164,8.9e-4 0.5176,0.104025 0.12431,0.08784 0.1831,0.304732 0.10984,0.405243 -0.0483,0.06629 -0.10833,1.948019 -0.12624,3.957903 -0.007,0.748815 -0.0227,0.913965 -0.13853,1.427042 -0.17312,0.766883 -0.20665,1.303034 -0.10576,1.69132 0.0797,0.306745 0.0981,0.556276 0.0475,0.64386 -0.0322,0.05572 -0.25575,0.142543 -0.36701,0.142543 -0.0474,0 -0.0783,-0.04344 -0.0947,-0.133296 z"
       style="fill:#e6e6e6;stroke-width:0.12585011;stroke-miterlimit:4;stroke-dasharray:none" />
    <path
       id="path4890-8-3-8"
       d="m 149.8657,43.650416 c -0.0134,-0.05434 -0.0359,-0.632275 -0.0501,-1.284306 -0.0264,-1.221988 0.0226,-2.251318 0.1129,-2.367487 0.0283,-0.03641 0.10618,-0.209003 0.1731,-0.383548 0.21785,-0.56826 0.20471,-1.286029 -0.032,-1.750816 -0.10016,-0.196624 -0.11083,-0.269983 -0.0465,-0.319977 0.0591,-0.0459 0.37164,6.59e-4 0.5176,0.0771 0.12431,0.0651 0.1831,0.225855 0.10984,0.300349 -0.0483,0.04913 -0.10833,1.44379 -0.12624,2.933431 -0.007,0.554991 -0.0227,0.677394 -0.13853,1.057665 -0.17312,0.568381 -0.20665,0.965754 -0.10576,1.253535 0.0797,0.227347 0.0981,0.412289 0.0475,0.477202 -0.0322,0.0413 -0.25575,0.105647 -0.36701,0.105647 -0.0474,0 -0.0783,-0.0322 -0.0947,-0.09879 z"
       style="fill:#e6e6e6;stroke-width:0.10834503;stroke-miterlimit:4;stroke-dasharray:none" />
  </g>
  <g
     transform="translate(-0.37903352,-0.58659005)"
     id="layer1" />
</svg>
