<?xml version="1.0" encoding="UTF-8" standalone="no"?>
<svg
   xmlns:dc="http://purl.org/dc/elements/1.1/"
   xmlns:cc="http://creativecommons.org/ns#"
   xmlns:rdf="http://www.w3.org/1999/02/22-rdf-syntax-ns#"
   xmlns:svg="http://www.w3.org/2000/svg"
   xmlns="http://www.w3.org/2000/svg"
   id="svg8"
   version="1.1"
   viewBox="0 0 83.558703 63.300266"
   height="63.300266mm"
   width="83.558701mm">
  <defs
     id="defs2" />
  <metadata
     id="metadata5">
    <rdf:RDF>
      <cc:Work
         rdf:about="">
        <dc:format>image/svg+xml</dc:format>
        <dc:type
           rdf:resource="http://purl.org/dc/dcmitype/StillImage" />
        <dc:title></dc:title>
      </cc:Work>
    </rdf:RDF>
  </metadata>
  <g
     transform="translate(-28.356417,-0.58659005)"
     id="layer2">
    <path
       id="path4864"
       d="m 95.683828,45.594911 c -0.09196,-8.134485 0.02215,-12.668951 0.392343,-15.590954 0.306128,-2.416341 0.31024,-7.868927 0.0075,-9.937228 -0.269926,-1.844085 -0.158459,-2.43091 0.352552,-1.856039 0.399401,0.449315 0.4558,1.136343 0.353795,4.309721 -0.05552,1.727229 -0.106997,6.117132 -0.114395,9.755338 -0.0074,3.638206 -0.06907,7.426751 -0.137052,8.418989 -0.428971,6.261298 -0.452847,7.058575 -0.277764,9.275622 0.178466,2.259931 0.102129,3.036784 -0.314106,3.196508 -0.144364,0.0554 -0.192228,-1.323295 -0.262866,-7.571957 z"
       style="fill:#e6e6e6;stroke-width:0.43689099;stroke-miterlimit:4;stroke-dasharray:none" />
    <path
       id="path4866"
       d="m 92.433659,51.571255 c -0.0528,-1.079195 -0.065,-5.773193 -0.0273,-10.431103 0.059,-7.271897 0.10251,-8.675858 0.30814,-9.932943 0.31164,-1.905154 0.35602,-9.02908 0.0701,-11.245531 -0.19028,-1.47486 -0.13236,-1.807284 0.28441,-1.632077 0.25749,0.10825 0.50267,0.723389 0.52338,1.313146 0.008,0.240875 -0.0255,1.854386 -0.0755,3.585584 -0.05,1.731196 -0.11351,6.507545 -0.14114,10.614104 -0.0348,5.170791 -0.11458,8.254209 -0.2595,10.028501 -0.2493,3.052067 -0.26496,4.765409 -0.0635,6.945491 0.12886,1.394314 0.12053,1.695183 -0.06,2.168 -0.11529,0.301954 -0.26666,0.549004 -0.33638,0.549004 -0.0697,0 -0.16994,-0.882977 -0.2227,-1.962176 z"
       style="fill:#e6e6e6;stroke-width:0.45728406;stroke-miterlimit:4;stroke-dasharray:none" />
    <path
       id="path4868"
       d="m 98.797109,51.155196 c -0.14306,-2.86194 0.0189,-16.187862 0.21263,-17.492189 0.19061,-1.283496 0.23642,-6.90509 0.0768,-9.421251 -0.11141,-1.755799 -0.10784,-1.797667 0.13363,-1.56481 0.23786,0.229381 0.24644,0.626682 0.20767,9.621703 -0.0223,5.160343 -0.10448,10.344615 -0.18274,11.520601 -0.12122,1.821431 -0.1365,3.933169 -0.0592,8.17862 0.008,0.463351 -0.0522,0.895884 -0.13745,0.981075 -0.11429,0.114154 -0.17731,-0.343226 -0.25133,-1.823749 z"
       style="fill:#e6e6e6;stroke-width:0.43689099;stroke-miterlimit:4;stroke-dasharray:none" />
    <path
       id="path4870"
       d="m 96.412934,36.964641 c 0.003,-0.220498 0.0327,-0.294523 0.0666,-0.164499 0.0339,0.130022 0.0317,0.310428 -0.005,0.400902 -0.0366,0.09048 -0.0643,-0.0159 -0.0616,-0.236403 z"
       style="fill:#e6e6e6;stroke-width:0.43689099;stroke-miterlimit:4;stroke-dasharray:none" />
    <path
       id="path4872"
       d="m 95.683818,45.065744 c -0.003,-6.713087 0.0372,-8.733546 0.20829,-10.356693 0.16407,-1.556626 0.1947,-2.79376 0.13429,-5.424236 -0.043,-1.874229 -0.11442,-3.7234 -0.15862,-4.109271 -0.0864,-0.754142 0.0778,-0.934384 0.36531,-0.400902 0.16167,0.300033 0.16445,1.1849 0.0459,14.599597 -0.0195,2.204974 -0.10831,4.971214 -0.19737,6.1472 -0.10244,1.3525 -0.12923,3.095672 -0.0729,4.744032 0.0762,2.230027 0.0595,2.644428 -0.1158,2.873147 -0.18471,0.241007 -0.20526,-0.552299 -0.20909,-8.072874 z"
       style="fill:none;stroke-width:0.43689099;stroke-miterlimit:4;stroke-dasharray:none" />
    <path
       id="path4864-0"
       d="m 82.982023,44.655914 c -0.092,-8.43109 0.0221,-13.130896 0.39234,-16.159443 0.30613,-2.504448 0.31024,-8.155852 0.008,-10.299568 -0.26992,-1.911325 -0.15846,-2.519548 0.35256,-1.923715 0.3994,0.465698 0.4558,1.177776 0.35379,4.466865 -0.0555,1.790209 -0.107,6.340181 -0.11439,10.111046 -0.007,3.770865 -0.0691,7.697551 -0.13706,8.725968 -0.42897,6.489602 -0.45284,7.31595 -0.27776,9.613837 0.17847,2.342336 0.10213,3.147513 -0.31411,3.313061 -0.14436,0.05742 -0.19222,-1.371546 -0.26286,-7.848051 z"
       style="fill:#e6e6e6;stroke-width:0.44478479;stroke-miterlimit:4;stroke-dasharray:none" />
    <path
       transform="matrix(0.26458333,0,0,0.26458333,28.356417,0.58659005)"
       id="path43"
       d="m 143.33404,237.84354 c -0.0326,-0.026 -0.78251,-0.13784 -1.66644,-0.24853 -0.88392,-0.11069 -2.97321,-0.62384 -4.64285,-1.14033 -1.66965,-0.51649 -3.19643,-0.98306 -3.39286,-1.03681 -0.34971,-0.0957 -0.72638,-0.23173 -2.81992,-1.01829 l -1.03421,-0.38856 0.2753,-19.3101 c 0.15142,-10.62056 0.31354,-20.35475 0.36027,-21.63154 0.0467,-1.27678 0.19789,-6.17857 0.3359,-10.89285 0.13802,-4.71429 0.31124,-9.375 0.38495,-10.35715 0.31805,-4.2381 0.70834,-14.17242 0.66648,-16.96428 -0.10413,-6.94541 -2.95456,-12.57808 -7.6847,-15.18556 -1.56408,-0.8622 -2.3357,-1.05476 -4.23407,-1.05661 -5.71814,-0.006 -9.16449,4.6988 -10.03805,13.70222 -1.28569,13.25114 -1.81265,21.13671 -2.6399,39.50423 -0.60282,13.38434 -1.0895,22.13949 -1.41949,25.53572 -0.0859,0.88393 -0.25584,2.65049 -0.37768,3.92571 -0.12185,1.27521 -0.25844,2.35547 -0.30354,2.40056 -0.17949,0.1795 -10.145758,0.11052 -11.649911,-0.0806 -1.479661,-0.18803 -3.782686,-0.86749 -5.535715,-1.6332 -0.392857,-0.1716 -1.159953,-0.47346 -1.704657,-0.6708 -1.432246,-0.51889 -5.022082,-2.86235 -5.424353,-3.54103 -0.373729,-0.63054 -0.396025,-0.70251 -0.787961,-2.54348 -0.536968,-2.52221 -0.269254,-18.4795 0.432907,-25.80357 0.08945,-0.93304 0.235843,-2.45982 0.325314,-3.39286 0.08948,-0.93303 0.262815,-2.82143 0.385204,-4.19643 0.122389,-1.375 0.281807,-2.90178 0.354264,-3.39285 0.07246,-0.49108 0.236175,-2.01094 0.363822,-3.37748 0.127646,-1.36654 0.277857,-2.73261 0.333807,-3.03572 0.110828,-0.60041 0.397821,-2.49615 0.759264,-5.01538 0.126818,-0.88392 0.282746,-1.92857 0.346507,-2.32142 0.390043,-2.40332 0.541743,-3.33096 0.700872,-4.28572 0.09821,-0.58928 0.245296,-1.47321 0.326846,-1.96428 0.08155,-0.49108 0.391025,-2.17858 0.687721,-3.75 0.296697,-1.57143 0.623647,-3.4335 0.726561,-4.13793 0.102911,-0.70442 0.262825,-1.508 0.355361,-1.78571 0.09254,-0.27771 0.253832,-1.14779 0.358436,-1.93351 0.1046,-0.78571 0.276675,-1.83035 0.382389,-2.32143 0.105711,-0.49107 0.277228,-1.375 0.38115,-1.96428 0.103918,-0.58929 0.422157,-2.27679 0.707196,-3.75 4.479025,-23.14957 6.0852,-32.73155 7.83354,-46.732576 0.106725,-0.854704 0.256575,-1.658275 0.332992,-1.785714 0.07642,-0.12744 0.236093,-1.195997 0.354829,-2.374568 0.118736,-1.178572 0.287664,-2.544643 0.375393,-3.035715 1.452946,-8.132896 1.638136,-15.877017 0.433818,-18.140792 -1.655236,-3.111368 -5.611454,-3.410715 -11.179368,-0.845886 -1.775061,0.817675 -3.413532,1.486678 -3.641047,1.486678 -0.227514,0 -0.413664,0.1875 -0.413664,0.416668 0,0.229165 -0.102907,0.313757 -0.228686,0.187982 -0.125775,-0.125778 -0.648096,-0.01625 -1.160714,0.243386 -0.512614,0.259636 -1.494528,0.720532 -2.182028,1.024214 -0.6875,0.303679 -1.976683,0.874154 -2.864854,1.267718 -0.888168,0.393565 -3.620311,1.55285 -6.071429,2.57619 -8.062553,3.366114 -17.513632,7.694903 -28.028003,12.837407 -11.028632,5.394025 -13.59254,6.622493 -16.428572,7.871571 -0.982142,0.432564 -2.267857,1.002107 -2.857142,1.26565 -0.589286,0.263539 -1.875,0.826039 -2.857143,1.25 -0.982143,0.423957 -2.348215,1.023689 -3.035715,1.332739 -1.307748,0.587865 -2.435345,1.066272 -4.821428,2.045593 -2.4016631,0.985725 -3.1710323,1.308515 -4.2857145,1.798095 -1.6376168,0.71926 -5.1597988,1.95422 -5.573565,1.95422 -0.2414319,0 -0.301802,-1.26035 -0.1753468,-3.660718 0.1060686,-2.013393 0.2902284,-5.75 0.409244,-8.303572 0.1190156,-2.553571 0.3244862,-4.745228 0.4566013,-4.870346 0.1321152,-0.125122 4.7170308,-2.34255 10.188701,-4.927618 17.078739,-8.068786 25.035426,-12.085443 33.622937,-16.973364 1.717889,-0.977807 9.211714,-4.71975 9.464286,-4.725872 0.09821,-0.0025 0.821428,-0.332285 1.607143,-0.733128 0.785714,-0.400843 1.550792,-0.742779 1.700171,-0.759857 0.149379,-0.01707 0.750375,-0.27864 1.335543,-0.581243 0.585168,-0.302604 1.105807,-0.514111 1.156971,-0.470018 0.05117,0.04409 0.575172,-0.174143 1.164457,-0.484968 0.589286,-0.310829 1.473215,-0.72905 1.964286,-0.929379 0.491072,-0.200328 1.455357,-0.606403 2.142857,-0.902389 0.6875,-0.295982 3.288457,-1.3493 5.779904,-2.340703 9.406557,-3.743083 15.561936,-6.902068 20.315639,-10.426136 5.041682,-3.73755 9.761613,-9.713738 12.103583,-15.32504 0.952,-2.280976 0.86283,-4.695141 -0.2678,-7.25113 -0.75477,-1.706283 -3.98724,-6.795217 -4.43957,-6.989285 -0.15261,-0.06548 -0.27747,-0.346726 -0.27747,-0.625 0,-0.278274 -0.160714,-0.505952 -0.357143,-0.505952 -0.196428,0 -0.357143,-0.241072 -0.357143,-0.535715 0,-0.294642 -0.308035,-0.84375 -0.684525,-1.2202378 -0.376485,-0.3764878 -0.590771,-0.7782735 -0.476189,-0.8928571 0.114582,-0.1145832 0.0531,-0.2083332 -0.136618,-0.2083332 -0.573139,0 -0.106703,-2.4329943 0.511947,-2.6703929 0.313892,-0.1204518 3.037181,-0.3675839 6.051761,-0.5491821 3.01458,-0.1815986 5.59413,-0.3990207 5.73233,-0.4831604 0.13822,-0.08414 1.29594,-0.2661232 2.57272,-0.4044075 1.27679,-0.1382843 2.40179,-0.2997078 2.5,-0.3587192 0.0982,-0.059011 1.04672,-0.2172602 2.1078,-0.3516641 1.06107,-0.134404 2.18607,-0.2924247 2.5,-0.3511572 0.31392,-0.058733 1.53506,-0.2180299 2.71363,-0.3539943 1.17857,-0.1359643 2.625,-0.3038222 3.21429,-0.3730176 0.58928,-0.069195 2.17341,-0.2272076 3.52029,-0.3511383 1.34687,-0.1239307 2.87579,-0.2793592 3.39759,-0.3453966 3.8125,-0.4825004 11.79311,-0.7266846 23.26069,-0.7117117 12.0875,0.015783 15.41682,0.1133835 23.75,0.6962464 4.04105,0.2826506 8.42729,0.5858343 10.53571,0.7282433 3.61377,0.2440854 6.6162,0.6968947 7.92807,1.1956683 0.45206,0.1718737 0.98265,0.3522133 1.17908,0.4007546 1.52701,0.377355 2.2928,1.1797814 2.31007,2.4205946 0.017,1.2238036 -0.82362,2.2806279 -3.67697,4.6225108 -3.11275,2.554786 -3.464,3.428157 -3.331,8.282466 0.14967,5.462563 1.91796,9.252468 6.35562,13.621771 5.26816,5.187001 12.61425,9.007333 29.94942,15.575194 4.09671,1.552143 7.58782,2.918632 9.375,3.669564 0.44196,0.185704 1.60714,0.669997 2.58928,1.076204 0.98215,0.406211 2.24071,0.977486 2.7968,1.269503 0.5561,0.292015 1.15601,0.530936 1.33313,0.530936 0.28397,0 1.83535,0.698661 9.08436,4.091122 0.98214,0.459635 3.75446,1.828089 6.16071,3.041007 2.40625,1.212921 4.375,2.112618 4.375,1.999325 0,-0.113297 3.55519,1.57301 7.90043,3.747346 8.78808,4.397518 15.5104,7.463561 22.99243,10.486836 2.75,1.111193 5.36161,2.174578 5.80357,2.363075 1.48213,0.632118 4.4834,1.787553 8.125,3.127978 l 2.85715,1.051675 -0.0118,2.992247 c -0.0259,6.559025 -0.56302,17.512976 -0.90247,18.405796 l -0.35998,0.94682 -1.08366,-1.03733 c -0.75867,-0.72624 -1.47799,-1.05214 -2.39857,-1.08671 -1.77172,-0.0666 -2.61192,-0.35819 -5.94939,-2.06509 -1.6399,-0.8387 -3.02068,-1.80363 -3.2539,-2.27391 -0.63866,-1.28788 -1.99596,-2.575901 -2.71445,-2.575901 -0.36128,0 -0.96637,0.193282 -1.34464,0.429518 -1.09093,0.681293 -7.14808,-2.442932 -9.48111,-4.890268 -1.8415,-1.931718 -2.85668,-2.54645 -3.22393,-1.952225 -0.34844,0.563786 -1.28319,0.394411 -4.05351,-0.734479 -5.52658,-2.252053 -6.96686,-3.095503 -7.72256,-4.522453 -1.17511,-2.21889 -3.39286,-2.827922 -3.39286,-0.931736 0,0.784654 -0.11344,0.864889 -0.93227,0.659379 -0.51275,-0.128693 -1.67792,-0.563918 -2.58929,-0.967168 -0.91136,-0.40325 -2.0588,-0.897457 -2.54987,-1.09824 -0.49107,-0.200782 -1.33482,-0.595635 -1.875,-0.877457 -0.54018,-0.281818 -0.98214,-0.38605 -0.98214,-0.231628 0,0.154421 -0.84375,-0.629182 -1.875,-1.741343 -1.03125,-1.112164 -2.11607,-2.052036 -2.41072,-2.088607 -1.03274,-0.128186 -1.38223,0.02382 -1.59481,0.693568 -0.1996,0.628882 -0.44123,0.575432 -3.50621,-0.775636 -1.81051,-0.798086 -3.76262,-1.736557 -4.33803,-2.085493 -0.57541,-0.348936 -1.15527,-0.567018 -1.28857,-0.484629 -0.25433,0.157183 -1.06669,-1.346346 -1.78939,-3.311817 -0.49263,-1.339793 -1.05192,-1.52825 -1.05988,-0.357143 -0.011,1.621464 -0.40591,1.763471 -2.78776,1.00256 -2.31675,-0.74011 -5.06414,-2.195742 -5.78604,-3.065575 -0.26289,-0.31676 -0.53333,-2.778446 -0.7074,-6.439071 -0.26014,-5.470646 -0.34436,-5.992857 -1.09554,-6.792446 -0.99396,-1.058029 -1.96882,-1.117297 -2.22561,-0.135315 -0.18368,0.702365 0.24006,6.594843 0.67196,9.344332 0.19194,1.221936 0.13101,1.344565 -0.7819,1.57369 -2.58066,0.647703 -6.92175,-1.641893 -8.53225,-4.500111 -1.33495,-2.369207 -2.63432,-3.398382 -3.89204,-3.082718 -0.57778,0.145018 -1.00113,0.559722 -1.14123,1.11795 -0.26893,1.071475 -0.64996,1.092893 -3.2411,0.182179 -2.58389,-0.908165 -3.18671,-1.485193 -3.67807,-3.520715 -0.81768,-3.387307 -2.86898,-4.474542 -2.86898,-1.520617 0,0.780285 -0.12598,1.49656 -0.27995,1.591717 -0.15397,0.09516 -1.56022,-0.697585 -3.125,-1.761657 -1.56478,-1.064071 -3.03512,-1.936014 -3.26742,-1.937653 -0.6662,-0.0047 -0.76352,0.835989 -0.88862,7.675593 -0.33973,18.573921 0.003,26.244389 1.8419,41.249995 0.37316,3.04465 0.78503,6.58036 0.91526,7.85715 0.13024,1.27678 0.28446,2.56942 0.34272,2.87252 0.0582,0.3031 0.20734,1.58882 0.33131,2.85714 0.12397,1.26833 0.29115,2.81623 0.3715,3.43979 0.0804,0.62356 0.24676,2.2307 0.36978,3.57143 0.12303,1.34073 0.29208,3.1609 0.37568,4.04483 0.54081,5.71826 1.206,14.46599 1.38505,18.21429 0.0985,2.0625 0.34486,12.42857 0.54741,23.03571 0.44889,23.50789 0.538,24.56652 1.87138,22.23214 0.33987,-0.59501 0.43763,-2.64785 0.3767,-7.90968 -0.0453,-3.90836 -0.0227,-7.04229 0.0501,-6.96428 0.0729,0.078 0.2391,1.10611 0.36947,2.28468 0.13036,1.17857 0.30228,2.54464 0.38205,3.03571 0.0798,0.49107 0.48581,3.14286 0.90231,5.89286 0.4165,2.75 1.47201,8.9375 2.34558,13.75 0.87357,4.8125 1.6669,9.19428 1.76296,9.73728 0.0961,0.543 0.25641,1.82872 0.35634,2.85714 0.0999,1.02843 0.26911,2.15219 0.37597,2.49726 0.29134,0.9408 -0.54127,4.50826 -1.49085,6.38782 -0.64694,1.28054 -1.22701,1.84755 -2.54753,2.49023 -0.94042,0.45769 -2.11163,0.88167 -2.60271,0.94217 -0.49107,0.0605 -1.13392,0.21095 -1.42857,0.33433 -0.29464,0.12337 -0.62402,0.20954 -0.73194,0.19149 -0.52462,-0.0878 -14.0036,0.63824 -15.04119,0.81013 -5.3889,0.89278 -15.67624,3.44828 -20.92625,5.19834 -0.64002,0.21334 -1.59305,0.46576 -2.11784,0.56092 -0.52478,0.0952 -1.08535,0.2541 -1.2457,0.3532 -0.16034,0.0991 -0.61357,0.25143 -1.00716,0.33851 -0.3936,0.0871 -1.03706,0.23868 -1.42992,0.33689 -1.80649,0.45163 -2.38197,0.58345 -3.21428,0.73632 -0.49107,0.0902 -1.29465,0.2659 -1.78572,0.39046 -2.30209,0.58397 -5.10873,0.84825 -9.9407,0.93605 -2.42274,0.044 -4.43167,0.0588 -4.46429,0.0328 z m 40.82506,-35.07626 c 0.4864,-0.36033 0.9927,-1.04244 1.12512,-1.51581 0.37693,-1.34747 0.34775,-23.11047 -0.0342,-25.50352 -0.28954,-1.81408 -0.54379,-2.31996 -1.65716,-3.29716 -1.70765,-1.49881 -3.32889,-1.81373 -4.82544,-0.93734 -2.5317,1.48258 -2.4493,0.95084 -2.47829,15.99256 -0.0247,12.79468 0.0116,13.59468 0.65607,14.46428 1.35543,1.82901 5.24131,2.25831 7.21391,0.79699 z m -3.76147,-43.39545 c 1.63529,-1.6353 1.74245,-3.35239 1.77518,-28.4453 0.0348,-26.71174 0.0957,-26.0763 -2.78747,-29.08548 -0.85834,-0.89585 -1.67083,-1.62881 -1.80552,-1.62881 -0.3786,0 -1.60746,0.70513 -2.38228,1.36697 -0.68098,0.58168 -0.69818,1.16751 -0.65733,22.38303 0.0504,26.15646 0.29207,31.68107 1.4803,33.8351 0.78118,1.41614 2.03351,2.39779 3.07404,2.40964 0.25446,0.003 0.84085,-0.37293 1.30308,-0.83515 z m -45.08397,-37.90959 c 0.40988,-1.44124 0.0761,-29.386046 -0.40737,-34.107143 -1.8186,-17.75826 -4.32983,-23.928571 -9.73858,-23.928571 -2.05782,0 -3.41688,0.623536 -4.71087,2.161361 -2.10327,2.499593 -3.35714,5.530003 -3.9597,9.569982 -0.10934,0.733132 -0.28213,1.728318 -0.38395,2.211525 -0.10184,0.483207 -0.25413,1.280346 -0.33843,1.771418 -0.0843,0.491071 -0.3817,1.9375 -0.66087,3.214285 -0.51258,2.344229 -1.43654,8.939233 -1.85133,13.214286 -0.12387,1.276786 -0.27968,2.803572 -0.34624,3.392857 -0.0666,0.589286 -0.22487,2.00391 -0.35181,3.14361 -0.12694,1.1397 -0.29055,2.38245 -0.36358,2.76166 -0.32735,1.69981 -0.54578,14.56191 -0.26361,15.5233 l 0.31446,1.07143 6.94005,0.5617 c 3.81703,0.30893 8.9374,0.55 11.37859,0.53571 l 4.43853,-0.026 0.30471,-1.07142 z m 45.98347,-81.377507 c 2.1567,-1.000975 3.08913,-4.259788 2.6451,-9.244517 -0.2474,-2.777302 -0.83427,-4.335814 -1.83189,-4.864845 -0.34172,-0.18121 -4.63916,-0.427386 -9.54988,-0.547058 -4.91071,-0.119672 -10.69643,-0.303666 -12.85714,-0.408875 -2.16072,-0.105209 -4.11966,-0.06127 -4.35321,0.09765 -0.65978,0.448949 -0.87156,2.022037 -0.97442,7.23801 -0.11603,5.884025 0.19017,6.934908 2.17561,7.466811 3.66544,0.981979 22.7594,1.184775 24.74583,0.262825 z m -49.70829,-1.938982 c 0.48537,-0.740764 0.56779,-1.803885 0.49529,-6.388395 -0.0478,-3.02486 -0.23382,-5.886 -0.41331,-6.35809 -0.41591,-1.093929 -2.08024,-1.600534 -6.1288,-1.865549 -3.47806,-0.227671 -4.4716,-0.06657 -5.59427,0.907118 -0.75089,0.651246 -0.78015,0.930602 -0.78015,7.450201 0,3.725472 0.11601,6.88959 0.25779,7.031376 0.14179,0.141785 2.80556,0.224985 5.91949,0.184889 5.60193,-0.07213 5.66784,-0.08228 6.24396,-0.96155 z"
       style="fill:none;fill-opacity:1;stroke-width:1.16760409;stroke-miterlimit:4;stroke-dasharray:none" />
    <path
       transform="matrix(0.26458333,0,0,0.26458333,28.356417,0.58659005)"
       id="path45"
       d="m 143.33404,237.84354 c -0.0326,-0.026 -0.78251,-0.13784 -1.66644,-0.24853 -0.88392,-0.11069 -2.97321,-0.62384 -4.64285,-1.14033 -1.66965,-0.51649 -3.19643,-0.98306 -3.39286,-1.03681 -0.34971,-0.0957 -0.72638,-0.23173 -2.81992,-1.01829 l -1.03421,-0.38856 0.2753,-19.3101 c 0.15142,-10.62056 0.31354,-20.35475 0.36027,-21.63154 0.0467,-1.27678 0.19789,-6.17857 0.3359,-10.89285 0.13802,-4.71429 0.31124,-9.375 0.38495,-10.35715 0.31805,-4.2381 0.70834,-14.17242 0.66648,-16.96428 -0.10413,-6.94541 -2.95456,-12.57808 -7.6847,-15.18556 -1.56408,-0.8622 -2.3357,-1.05476 -4.23407,-1.05661 -5.71814,-0.006 -9.16449,4.6988 -10.03805,13.70222 -1.28569,13.25114 -1.81265,21.13671 -2.6399,39.50423 -0.60282,13.38434 -1.0895,22.13949 -1.41949,25.53572 -0.0859,0.88393 -0.25584,2.65049 -0.37768,3.92571 -0.12185,1.27521 -0.25844,2.35547 -0.30354,2.40056 -0.17949,0.1795 -10.145758,0.11052 -11.649911,-0.0806 -1.479661,-0.18803 -3.782686,-0.86749 -5.535715,-1.6332 -0.392857,-0.1716 -1.159953,-0.47346 -1.704657,-0.6708 -1.432246,-0.51889 -5.022082,-2.86235 -5.424353,-3.54103 -0.373729,-0.63054 -0.396025,-0.70251 -0.787961,-2.54348 -0.536968,-2.52221 -0.269254,-18.4795 0.432907,-25.80357 0.08945,-0.93304 0.235843,-2.45982 0.325314,-3.39286 0.08948,-0.93303 0.262815,-2.82143 0.385204,-4.19643 0.122389,-1.375 0.281807,-2.90178 0.354264,-3.39285 0.07246,-0.49108 0.236175,-2.01094 0.363822,-3.37748 0.127646,-1.36654 0.277857,-2.73261 0.333807,-3.03572 0.110828,-0.60041 0.397821,-2.49615 0.759264,-5.01538 0.126818,-0.88392 0.282746,-1.92857 0.346507,-2.32142 0.390043,-2.40332 0.541743,-3.33096 0.700872,-4.28572 0.09821,-0.58928 0.245296,-1.47321 0.326846,-1.96428 0.08155,-0.49108 0.391025,-2.17858 0.687721,-3.75 0.296697,-1.57143 0.623647,-3.4335 0.726561,-4.13793 0.102911,-0.70442 0.262825,-1.508 0.355361,-1.78571 0.09254,-0.27771 0.253832,-1.14779 0.358436,-1.93351 0.1046,-0.78571 0.276675,-1.83035 0.382389,-2.32143 0.105711,-0.49107 0.277228,-1.375 0.38115,-1.96428 0.103918,-0.58929 0.422157,-2.27679 0.707196,-3.75 4.479025,-23.14957 6.0852,-32.73155 7.83354,-46.732576 0.106725,-0.854704 0.256575,-1.658275 0.332992,-1.785714 0.07642,-0.12744 0.236093,-1.195997 0.354829,-2.374568 0.118736,-1.178572 0.287664,-2.544643 0.375393,-3.035715 1.452946,-8.132896 1.638136,-15.877017 0.433818,-18.140792 -1.655236,-3.111368 -5.611454,-3.410715 -11.179368,-0.845886 -1.775061,0.817675 -3.413532,1.486678 -3.641047,1.486678 -0.227514,0 -0.413664,0.1875 -0.413664,0.416668 0,0.229165 -0.102907,0.313757 -0.228686,0.187982 -0.125775,-0.125778 -0.648096,-0.01625 -1.160714,0.243386 -0.512614,0.259636 -1.494528,0.720532 -2.182028,1.024214 -0.6875,0.303679 -1.976683,0.874154 -2.864854,1.267718 -0.888168,0.393565 -3.620311,1.55285 -6.071429,2.57619 -8.062553,3.366114 -17.513632,7.694903 -28.028003,12.837407 -11.028632,5.394025 -13.59254,6.622493 -16.428572,7.871571 -0.982142,0.432564 -2.267857,1.002107 -2.857142,1.26565 -0.589286,0.263539 -1.875,0.826039 -2.857143,1.25 -0.982143,0.423957 -2.348215,1.023689 -3.035715,1.332739 -1.307748,0.587865 -2.435345,1.066272 -4.821428,2.045593 -2.4016631,0.985725 -3.1710323,1.308515 -4.2857145,1.798095 -1.6376168,0.71926 -5.1597988,1.95422 -5.573565,1.95422 -0.2414319,0 -0.301802,-1.26035 -0.1753468,-3.660718 0.1060686,-2.013393 0.2902284,-5.75 0.409244,-8.303572 0.1190156,-2.553571 0.3244862,-4.745228 0.4566013,-4.870346 0.1321152,-0.125122 4.7170308,-2.34255 10.188701,-4.927618 17.078739,-8.068786 25.035426,-12.085443 33.622937,-16.973364 1.717889,-0.977807 9.211714,-4.71975 9.464286,-4.725872 0.09821,-0.0025 0.821428,-0.332285 1.607143,-0.733128 0.785714,-0.400843 1.550792,-0.742779 1.700171,-0.759857 0.149379,-0.01707 0.750375,-0.27864 1.335543,-0.581243 0.585168,-0.302604 1.105807,-0.514111 1.156971,-0.470018 0.05117,0.04409 0.575172,-0.174143 1.164457,-0.484968 0.589286,-0.310829 1.473215,-0.72905 1.964286,-0.929379 0.491072,-0.200328 1.455357,-0.606403 2.142857,-0.902389 0.6875,-0.295982 3.288457,-1.3493 5.779904,-2.340703 9.406557,-3.743083 15.561936,-6.902068 20.315639,-10.426136 5.041682,-3.73755 9.761613,-9.713738 12.103583,-15.32504 0.952,-2.280976 0.86283,-4.695141 -0.2678,-7.25113 -0.75477,-1.706283 -3.98724,-6.795217 -4.43957,-6.989285 -0.15261,-0.06548 -0.27747,-0.346726 -0.27747,-0.625 0,-0.278274 -0.160714,-0.505952 -0.357143,-0.505952 -0.196428,0 -0.357143,-0.241072 -0.357143,-0.535715 0,-0.294642 -0.308035,-0.84375 -0.684525,-1.2202378 -0.376485,-0.3764878 -0.590771,-0.7782735 -0.476189,-0.8928571 0.114582,-0.1145832 0.0531,-0.2083332 -0.136618,-0.2083332 -0.573139,0 -0.106703,-2.4329943 0.511947,-2.6703929 0.313892,-0.1204518 3.037181,-0.3675839 6.051761,-0.5491821 3.01458,-0.1815986 5.59413,-0.3990207 5.73233,-0.4831604 0.13822,-0.08414 1.29594,-0.2661232 2.57272,-0.4044075 1.27679,-0.1382843 2.40179,-0.2997078 2.5,-0.3587192 0.0982,-0.059011 1.04672,-0.2172602 2.1078,-0.3516641 1.06107,-0.134404 2.18607,-0.2924247 2.5,-0.3511572 0.31392,-0.058733 1.53506,-0.2180299 2.71363,-0.3539943 1.17857,-0.1359643 2.625,-0.3038222 3.21429,-0.3730176 0.58928,-0.069195 2.17341,-0.2272076 3.52029,-0.3511383 1.34687,-0.1239307 2.87579,-0.2793592 3.39759,-0.3453966 3.8125,-0.4825004 11.79311,-0.7266846 23.26069,-0.7117117 12.0875,0.015783 15.41682,0.1133835 23.75,0.6962464 4.04105,0.2826506 8.42729,0.5858343 10.53571,0.7282433 3.61377,0.2440854 6.6162,0.6968947 7.92807,1.1956683 0.45206,0.1718737 0.98265,0.3522133 1.17908,0.4007546 1.52701,0.377355 2.2928,1.1797814 2.31007,2.4205946 0.017,1.2238036 -0.82362,2.2806279 -3.67697,4.6225108 -3.11275,2.554786 -3.464,3.428157 -3.331,8.282466 0.14967,5.462563 1.91796,9.252468 6.35562,13.621771 5.26816,5.187001 12.61425,9.007333 29.94942,15.575194 4.09671,1.552143 7.58782,2.918632 9.375,3.669564 0.44196,0.185704 1.60714,0.669997 2.58928,1.076204 0.98215,0.406211 2.24071,0.977486 2.7968,1.269503 0.5561,0.292015 1.15601,0.530936 1.33313,0.530936 0.28397,0 1.83535,0.698661 9.08436,4.091122 0.98214,0.459635 3.75446,1.828089 6.16071,3.041007 2.40625,1.212921 4.375,2.112618 4.375,1.999325 0,-0.113297 3.55519,1.57301 7.90043,3.747346 8.78808,4.397518 15.5104,7.463561 22.99243,10.486836 2.75,1.111193 5.36161,2.174578 5.80357,2.363075 1.48213,0.632118 4.4834,1.787553 8.125,3.127978 l 2.85715,1.051675 -0.0118,2.992247 c -0.0259,6.559025 -0.56302,17.512976 -0.90247,18.405796 l -0.35998,0.94682 -1.08366,-1.03733 c -0.75867,-0.72624 -1.47799,-1.05214 -2.39857,-1.08671 -1.77172,-0.0666 -2.61192,-0.35819 -5.94939,-2.06509 -1.6399,-0.8387 -3.02068,-1.80363 -3.2539,-2.27391 -0.63866,-1.28788 -1.99596,-2.575901 -2.71445,-2.575901 -0.36128,0 -0.96637,0.193282 -1.34464,0.429518 -1.09093,0.681293 -7.14808,-2.442932 -9.48111,-4.890268 -1.8415,-1.931718 -2.85668,-2.54645 -3.22393,-1.952225 -0.34844,0.563786 -1.28319,0.394411 -4.05351,-0.734479 -5.52658,-2.252053 -6.96686,-3.095503 -7.72256,-4.522453 -1.17511,-2.21889 -3.39286,-2.827922 -3.39286,-0.931736 0,0.784654 -0.11344,0.864889 -0.93227,0.659379 -0.51275,-0.128693 -1.67792,-0.563918 -2.58929,-0.967168 -0.91136,-0.40325 -2.0588,-0.897457 -2.54987,-1.09824 -0.49107,-0.200782 -1.33482,-0.595635 -1.875,-0.877457 -0.54018,-0.281818 -0.98214,-0.38605 -0.98214,-0.231628 0,0.154421 -0.84375,-0.629182 -1.875,-1.741343 -1.03125,-1.112164 -2.11607,-2.052036 -2.41072,-2.088607 -1.03274,-0.128186 -1.38223,0.02382 -1.59481,0.693568 -0.1996,0.628882 -0.44123,0.575432 -3.50621,-0.775636 -1.81051,-0.798086 -3.76262,-1.736557 -4.33803,-2.085493 -0.57541,-0.348936 -1.15527,-0.567018 -1.28857,-0.484629 -0.25433,0.157183 -1.06669,-1.346346 -1.78939,-3.311817 -0.49263,-1.339793 -1.05192,-1.52825 -1.05988,-0.357143 -0.011,1.621464 -0.40591,1.763471 -2.78776,1.00256 -2.31675,-0.74011 -5.06414,-2.195742 -5.78604,-3.065575 -0.26289,-0.31676 -0.53333,-2.778446 -0.7074,-6.439071 -0.26014,-5.470646 -0.34436,-5.992857 -1.09554,-6.792446 -0.99396,-1.058029 -1.96882,-1.117297 -2.22561,-0.135315 -0.18368,0.702365 0.24006,6.594843 0.67196,9.344332 0.19194,1.221936 0.13101,1.344565 -0.7819,1.57369 -2.58066,0.647703 -6.92175,-1.641893 -8.53225,-4.500111 -1.33495,-2.369207 -2.63432,-3.398382 -3.89204,-3.082718 -0.57778,0.145018 -1.00113,0.559722 -1.14123,1.11795 -0.26893,1.071475 -0.64996,1.092893 -3.2411,0.182179 -2.58389,-0.908165 -3.18671,-1.485193 -3.67807,-3.520715 -0.81768,-3.387307 -2.86898,-4.474542 -2.86898,-1.520617 0,0.780285 -0.12598,1.49656 -0.27995,1.591717 -0.15397,0.09516 -1.56022,-0.697585 -3.125,-1.761657 -1.56478,-1.064071 -3.03512,-1.936014 -3.26742,-1.937653 -0.6662,-0.0047 -0.76352,0.835989 -0.88862,7.675593 -0.33973,18.573921 0.003,26.244389 1.8419,41.249995 0.37316,3.04465 0.78503,6.58036 0.91526,7.85715 0.13024,1.27678 0.28446,2.56942 0.34272,2.87252 0.0582,0.3031 0.20734,1.58882 0.33131,2.85714 0.12397,1.26833 0.29115,2.81623 0.3715,3.43979 0.0804,0.62356 0.24676,2.2307 0.36978,3.57143 0.12303,1.34073 0.29208,3.1609 0.37568,4.04483 0.54081,5.71826 1.206,14.46599 1.38505,18.21429 0.0985,2.0625 0.34486,12.42857 0.54741,23.03571 0.44889,23.50789 0.538,24.56652 1.87138,22.23214 0.33987,-0.59501 0.43763,-2.64785 0.3767,-7.90968 -0.0453,-3.90836 -0.0227,-7.04229 0.0501,-6.96428 0.0729,0.078 0.2391,1.10611 0.36947,2.28468 0.13036,1.17857 0.30228,2.54464 0.38205,3.03571 0.0798,0.49107 0.48581,3.14286 0.90231,5.89286 0.4165,2.75 1.47201,8.9375 2.34558,13.75 0.87357,4.8125 1.6669,9.19428 1.76296,9.73728 0.0961,0.543 0.25641,1.82872 0.35634,2.85714 0.0999,1.02843 0.26911,2.15219 0.37597,2.49726 0.29134,0.9408 -0.54127,4.50826 -1.49085,6.38782 -0.64694,1.28054 -1.22701,1.84755 -2.54753,2.49023 -0.94042,0.45769 -2.11163,0.88167 -2.60271,0.94217 -0.49107,0.0605 -1.13392,0.21095 -1.42857,0.33433 -0.29464,0.12337 -0.62402,0.20954 -0.73194,0.19149 -0.52462,-0.0878 -14.0036,0.63824 -15.04119,0.81013 -5.3889,0.89278 -15.67624,3.44828 -20.92625,5.19834 -0.64002,0.21334 -1.59305,0.46576 -2.11784,0.56092 -0.52478,0.0952 -1.08535,0.2541 -1.2457,0.3532 -0.16034,0.0991 -0.61357,0.25143 -1.00716,0.33851 -0.3936,0.0871 -1.03706,0.23868 -1.42992,0.33689 -1.80649,0.45163 -2.38197,0.58345 -3.21428,0.73632 -0.49107,0.0902 -1.29465,0.2659 -1.78572,0.39046 -2.30209,0.58397 -5.10873,0.84825 -9.9407,0.93605 -2.42274,0.044 -4.43167,0.0588 -4.46429,0.0328 z m 40.82506,-35.07626 c 0.4864,-0.36033 0.9927,-1.04244 1.12512,-1.51581 0.37693,-1.34747 0.34775,-23.11047 -0.0342,-25.50352 -0.28954,-1.81408 -0.54379,-2.31996 -1.65716,-3.29716 -1.70765,-1.49881 -3.32889,-1.81373 -4.82544,-0.93734 -2.5317,1.48258 -2.4493,0.95084 -2.47829,15.99256 -0.0247,12.79468 0.0116,13.59468 0.65607,14.46428 1.35543,1.82901 5.24131,2.25831 7.21391,0.79699 z m -3.76147,-43.39545 c 1.63529,-1.6353 1.74245,-3.35239 1.77518,-28.4453 0.0348,-26.71174 0.0957,-26.0763 -2.78747,-29.08548 -0.85834,-0.89585 -1.67083,-1.62881 -1.80552,-1.62881 -0.3786,0 -1.60746,0.70513 -2.38228,1.36697 -0.68098,0.58168 -0.69818,1.16751 -0.65733,22.38303 0.0504,26.15646 0.29207,31.68107 1.4803,33.8351 0.78118,1.41614 2.03351,2.39779 3.07404,2.40964 0.25446,0.003 0.84085,-0.37293 1.30308,-0.83515 z m -45.08397,-37.90959 c 0.40988,-1.44124 0.0761,-29.386046 -0.40737,-34.107143 -1.8186,-17.75826 -4.32983,-23.928571 -9.73858,-23.928571 -2.05782,0 -3.41688,0.623536 -4.71087,2.161361 -2.10327,2.499593 -3.35714,5.530003 -3.9597,9.569982 -0.10934,0.733132 -0.28213,1.728318 -0.38395,2.211525 -0.10184,0.483207 -0.25413,1.280346 -0.33843,1.771418 -0.0843,0.491071 -0.3817,1.9375 -0.66087,3.214285 -0.51258,2.344229 -1.43654,8.939233 -1.85133,13.214286 -0.12387,1.276786 -0.27968,2.803572 -0.34624,3.392857 -0.0666,0.589286 -0.22487,2.00391 -0.35181,3.14361 -0.12694,1.1397 -0.29055,2.38245 -0.36358,2.76166 -0.32735,1.69981 -0.54578,14.56191 -0.26361,15.5233 l 0.31446,1.07143 6.94005,0.5617 c 3.81703,0.30893 8.9374,0.55 11.37859,0.53571 l 4.43853,-0.026 0.30471,-1.07142 z m 45.98347,-81.377507 c 2.1567,-1.000975 3.08913,-4.259788 2.6451,-9.244517 -0.2474,-2.777302 -0.83427,-4.335814 -1.83189,-4.864845 -0.34172,-0.18121 -4.63916,-0.427386 -9.54988,-0.547058 -4.91071,-0.119672 -10.69643,-0.303666 -12.85714,-0.408875 -2.16072,-0.105209 -4.11966,-0.06127 -4.35321,0.09765 -0.65978,0.448949 -0.87156,2.022037 -0.97442,7.23801 -0.11603,5.884025 0.19017,6.934908 2.17561,7.466811 3.66544,0.981979 22.7594,1.184775 24.74583,0.262825 z m -49.70829,-1.938982 c 0.48537,-0.740764 0.56779,-1.803885 0.49529,-6.388395 -0.0478,-3.02486 -0.23382,-5.886 -0.41331,-6.35809 -0.41591,-1.093929 -2.08024,-1.600534 -6.1288,-1.865549 -3.47806,-0.227671 -4.4716,-0.06657 -5.59427,0.907118 -0.75089,0.651246 -0.78015,0.930602 -0.78015,7.450201 0,3.725472 0.11601,6.88959 0.25779,7.031376 0.14179,0.141785 2.80556,0.224985 5.91949,0.184889 5.60193,-0.07213 5.66784,-0.08228 6.24396,-0.96155 z"
       style="fill:none;fill-opacity:1;stroke-width:1.16760409;stroke-miterlimit:4;stroke-dasharray:none" />
    <path
       transform="matrix(0.26458333,0,0,0.26458333,28.356417,0.58659005)"
       id="path47"
       d="m 141.87644,237.67416 c -3.05119,-0.44501 -7.031,-1.59511 -9.68687,-2.79934 l -2.30768,-1.04635 v -11.7675 c 0,-13.06296 0.40595,-28.04614 1.34187,-49.5273 0.81863,-18.78932 0.78625,-20.67371 -0.4166,-24.23796 -4.29347,-12.72229 -17.1758,-13.20496 -20.33868,-0.76204 -0.29958,1.17857 -0.64632,3.75 -0.77054,5.71428 -0.12422,1.96429 -0.44969,5.90179 -0.72327,8.75 -0.74427,7.74856 -1.16389,14.80356 -1.77372,29.82143 -0.51037,12.56845 -1.31916,25.90248 -1.84991,30.49822 l -0.22253,1.92678 -5.391163,-0.20116 c -6.586514,-0.24577 -9.187536,-0.82554 -14.498314,-3.23173 l -4.107143,-1.86084 -0.662007,-1.95849 c -1.293029,-3.82533 -1.17585,-15.45591 0.316586,-31.42278 1.466225,-15.68642 2.718835,-23.72998 7.821203,-50.22343 3.935782,-20.43609 5.1579,-27.6261 6.609225,-38.88371 0.582439,-4.517857 1.48555,-10.866071 2.006911,-14.107143 0.563814,-3.504957 0.958528,-7.426714 0.974082,-9.67811 0.02296,-3.325586 -0.0792,-3.995568 -0.841354,-5.51715 -1.220653,-2.436936 -2.320732,-3.139872 -4.86931,-3.111429 -2.207807,0.02464 -5.138354,0.978168 -8.855336,2.8813 -1.178571,0.603439 -6.170532,2.779829 -11.09325,4.836418 C 58.930222,77.451387 55.334208,79.08604 42.560461,85.393437 36.078319,88.59418 27.88189,92.493383 24.346176,94.058337 11.990315,99.527197 1.6388113,103.87392 1.4412739,103.67639 1.2505074,103.48562 1.9609798,86.942672 2.1688674,86.734787 2.2243383,86.679315 8.5118428,83.660808 16.141099,80.02699 31.568706,72.678815 39.638865,68.567755 45.239033,65.204058 50.603747,61.981783 56.848922,59.08104 68.274747,54.504487 79.241308,50.11189 84.810158,47.572683 88.63189,45.222322 c 7.515889,-4.622267 12.55392,-10.060464 15.77124,-17.023935 1.14039,-2.468226 1.26065,-3.005086 1.10566,-4.935891 -0.21219,-2.643473 -1.41691,-5.139814 -4.74433,-9.83085 C 97.743551,9.1727271 97.102594,7.8802403 97.608672,7.068 98.226308,6.0767185 100.20627,5.6109246 103.8932,5.589541 c 1.92329,-0.011153 5.91108,-0.4204843 8.92858,-0.9164803 7.60711,-1.2504062 19.85754,-2.5783851 28.30388,-3.0682157 7.94806,-0.4609338 29.24079,-0.2543085 35.89909,0.3483659 2.25893,0.2044664 6.91737,0.5492084 10.35209,0.7660933 11.59901,0.7324173 15.612,2.122029 14.15168,4.900425 -0.56974,1.0839743 -2.8786,3.3732628 -4.92569,4.8839318 -1.52722,1.127024 -2.07808,2.965869 -2.07808,6.936837 0,8.733585 5.72941,15.668061 18.15484,21.973328 4.32887,2.196686 9.27324,4.23595 22.2023,9.157168 8.69017,3.307761 20.19622,8.488218 36.07143,16.240721 17.31143,8.453872 23.15615,11.002129 40.13717,17.49954 l 3.53003,1.350685 -0.22079,4.15015 c -0.12144,2.282582 -0.32711,7.2439 -0.45705,11.02515 -0.12994,3.78125 -0.30531,6.875 -0.38972,6.875 -1.04757,0 -10.42761,-4.30419 -21.34964,-9.796632 -12.27534,-6.172993 -16.93519,-8.241253 -28.21429,-12.522836 -5.7244,-2.173 -17.19653,-7.137121 -31.78571,-13.754028 -7.46429,-3.385422 -16.21234,-7.280639 -19.44011,-8.656039 -5.64286,-2.404497 -8.6445,-4.00784 -11.84915,-6.329272 -2.62809,-1.903782 -2.6172,-1.924175 -2.80604,5.255475 -0.29252,11.121843 -0.15733,24.763889 0.29287,29.553332 0.24002,2.553572 1.14626,10.58929 2.01385,17.85714 1.89956,15.9128 2.19986,18.78451 2.68901,25.71429 0.64958,9.20255 3.53286,40.43047 4.30325,46.60714 0.79494,6.37343 2.48932,16.68038 4.45297,27.08742 2.35446,12.47828 1.46459,16.53009 -4.10255,18.67997 -1.69594,0.65492 -3.09313,0.80557 -9.66124,1.04171 -10.02745,0.36051 -13.95454,1.0798 -27.14286,4.97153 -14.72551,4.34533 -21.57413,5.34699 -29.07688,4.25272 z m 41.81847,-34.5834 c 1.33782,-0.60741 1.51523,-0.83672 1.72089,-2.2243 0.12612,-0.85089 0.17811,-7.09172 0.11555,-13.86851 -0.1288,-13.95237 -0.13501,-13.98431 -2.98656,-15.36472 -1.84527,-0.89329 -2.81636,-0.89084 -4.27515,0.0108 -2.09127,1.29247 -2.14205,1.68367 -2.09598,16.14773 0.0373,11.72353 0.10652,13.21399 0.65196,14.04643 1.24319,1.89735 4.24404,2.44456 6.86929,1.25263 z m -2.99619,-43.86594 c 1.26717,-1.4002 1.38824,-3.46478 1.57937,-26.93065 0.17055,-20.94032 0.13095,-23.35361 -0.42421,-25.84893 -0.50829,-2.28468 -0.85785,-3.01864 -2.05746,-4.32007 -1.90997,-2.07207 -2.71777,-2.248101 -4.1815,-0.91118 l -1.15378,1.0538 0.14998,26.0258 c 0.16182,28.07987 0.16918,28.18822 2.08166,30.61953 0.90381,1.14901 3.09396,1.31942 4.00594,0.3117 z m -45.43525,-36.60187 c 0.0134,-0.0491 0.16309,-3.78571 0.33256,-8.30357 0.53837,-14.352247 -0.77935,-33.368165 -2.89052,-41.713011 -1.42657,-5.638818 -3.31438,-8.350304 -6.39036,-9.178579 -2.13115,-0.57386 -3.89985,0.03089 -5.65301,1.932822 -2.00691,2.177239 -3.13624,4.5772 -3.8114,8.099671 -0.31646,1.651075 -0.81942,4.207314 -1.11767,5.680529 -1.25881,6.217803 -1.90679,10.53495 -2.45326,16.344696 -0.31899,3.391372 -0.73672,7.087802 -0.92828,8.214282 -0.46938,2.76025 -0.85022,14.15862 -0.54179,16.21541 l 0.24738,1.64966 4.00167,0.26825 c 9.46886,0.63475 12.06172,0.77246 15.51953,0.82427 2.01339,0.0302 3.67171,0.0147 3.68515,-0.0344 z m 46.34298,-82.527199 c 1.72185,-0.934521 2.27271,-2.573368 2.37224,-7.057589 0.0959,-4.318826 -0.28146,-5.838742 -1.71279,-6.899613 -0.95371,-0.706867 -1.51981,-0.753648 -10.35714,-0.855868 -5.14157,-0.05947 -11.02385,-0.13983 -13.07174,-0.178572 l -3.72344,-0.07044 -0.33628,1.071428 c -0.18496,0.589286 -0.35762,3.597195 -0.38371,6.684243 -0.0617,7.302286 -0.34058,6.972461 6.42914,7.603411 2.72361,0.253846 8.24666,0.436046 12.27345,0.404889 6.31342,-0.04885 7.4851,-0.145485 8.51027,-0.701889 z m -51.5573,-1.077804 c 1.3303,-0.05229 1.4428,-0.14336 1.83355,-1.484278 0.5622,-1.929264 0.24436,-11.488977 -0.41725,-12.54952 -0.57326,-0.918932 -3.69729,-1.557623 -7.61879,-1.557623 -2.2412,0 -2.74749,0.124808 -3.81773,0.941121 l -1.23388,0.941122 0.097,6.63795 0.097,6.63795 0.87401,0.435407 c 0.60627,0.302025 2.08327,0.376925 4.82143,0.244496 2.17108,-0.105003 4.58519,-0.215985 5.36468,-0.246625 z"
       style="fill:#ececec;fill-opacity:1;stroke-width:1.16760409;stroke-miterlimit:4;stroke-dasharray:none" />
    <path
       id="path4864-0-3"
       d="m 85.909853,46.564852 c -0.092,-8.605936 0.0221,-13.403208 0.39234,-16.494561 0.30613,-2.556387 0.31024,-8.324991 0.008,-10.513165 -0.26992,-1.950962 -0.15846,-2.571799 0.35256,-1.963609 0.3994,0.475356 0.4558,1.202201 0.35379,4.559501 -0.0555,1.827335 -0.107,6.471665 -0.11439,10.32073 -0.007,3.849067 -0.0691,7.857186 -0.13706,8.906931 -0.42897,6.624186 -0.45284,7.467669 -0.27776,9.813211 0.17847,2.390911 0.10213,3.212787 -0.31411,3.381767 -0.14436,0.05861 -0.19222,-1.399988 -0.26286,-8.010805 z"
       style="fill:#e6e6e6;stroke-width:0.44937316;stroke-miterlimit:4;stroke-dasharray:none" />
    <path
       id="path4864-0-3-4"
       d="m 89.311638,46.349664 c -0.092,-8.431089 0.0221,-13.130896 0.39234,-16.159443 0.30613,-2.504449 0.31024,-8.155851 0.008,-10.299568 -0.26992,-1.911325 -0.15846,-2.519548 0.35256,-1.923715 0.3994,0.465698 0.4558,1.177776 0.35379,4.466866 -0.0555,1.790209 -0.107,6.340181 -0.11439,10.111044 -0.007,3.770865 -0.0691,7.697552 -0.13706,8.72597 -0.42897,6.489602 -0.45284,7.315948 -0.27776,9.613836 0.17847,2.342335 0.10213,3.147513 -0.31411,3.31306 -0.14436,0.05742 -0.19222,-1.371545 -0.26286,-7.84805 z"
       style="fill:#e6e6e6;stroke-width:0.44478479;stroke-miterlimit:4;stroke-dasharray:none" />
    <path
       id="path4868-0"
       d="m 101.85945,50.363104 c -0.14306,-2.861941 0.0189,-16.187863 0.21263,-17.49219 0.19061,-1.283496 0.23642,-6.90509 0.0768,-9.421251 -0.11141,-1.755799 -0.10784,-1.797667 0.13363,-1.56481 0.23786,0.229381 0.24644,0.626682 0.20767,9.621703 -0.0223,5.160343 -0.10448,10.344615 -0.18274,11.520601 -0.12122,1.821431 -0.1365,3.933169 -0.0592,8.178621 0.008,0.463349 -0.0522,0.895882 -0.13745,0.981075 -0.11429,0.114152 -0.17731,-0.343228 -0.25133,-1.823749 z"
       style="fill:#e6e6e6;stroke-width:0.43689099;stroke-miterlimit:4;stroke-dasharray:none" />
    <path
       id="path4868-8"
       d="m 104.50528,49.720545 c -0.14306,-2.861941 0.0189,-16.187863 0.21263,-17.49219 0.19061,-1.283496 0.23642,-6.90509 0.0768,-9.421251 -0.11141,-1.755799 -0.10784,-1.797667 0.13363,-1.56481 0.23786,0.229381 0.24644,0.626682 0.20767,9.621703 -0.0223,5.160343 -0.10448,10.344615 -0.18274,11.520601 -0.12122,1.821431 -0.1365,3.933169 -0.0592,8.178621 0.008,0.463349 -0.0522,0.895882 -0.13745,0.981075 -0.11429,0.114152 -0.17731,-0.343228 -0.25133,-1.823749 z"
       style="fill:#e6e6e6;stroke-width:0.43689099;stroke-miterlimit:4;stroke-dasharray:none" />
    <path
       id="path4868-3"
       d="m 107.4346,49.592371 c -0.14306,-2.444099 0.0189,-13.824438 0.21263,-14.938334 0.19061,-1.096106 0.23642,-5.896948 0.0768,-8.04575 -0.11141,-1.499453 -0.10784,-1.535208 0.13363,-1.336348 0.23786,0.195891 0.24644,0.535186 0.20767,8.216936 -0.0223,4.406934 -0.10448,8.834303 -0.18274,9.838595 -0.12122,1.555503 -0.1365,3.358927 -0.0592,6.984544 0.008,0.3957 -0.0522,0.765084 -0.13745,0.837838 -0.11429,0.09749 -0.17731,-0.293116 -0.25133,-1.557481 z"
       style="fill:#e6e6e6;stroke-width:0.40374026;stroke-miterlimit:4;stroke-dasharray:none" />
    <path
       id="path4868-3-2"
       d="m 110.36392,49.167148 c -0.14306,-2.444098 0.0189,-13.824438 0.21263,-14.938334 0.19061,-1.096106 0.23642,-5.896948 0.0768,-8.04575 -0.11141,-1.499453 -0.10784,-1.535208 0.13363,-1.336348 0.23786,0.195891 0.24644,0.535186 0.20767,8.216936 -0.0223,4.406934 -0.10448,8.834304 -0.18274,9.838595 -0.12122,1.555504 -0.1365,3.358927 -0.0592,6.984545 0.008,0.3957 -0.0522,0.765084 -0.13745,0.837838 -0.11429,0.09749 -0.17731,-0.293116 -0.25133,-1.557482 z"
       style="fill:#e6e6e6;stroke-width:0.40374026;stroke-miterlimit:4;stroke-dasharray:none" />
  </g>
  <g
     transform="translate(-28.356417,-0.58659005)"
     id="layer1" />
</svg>
